<svg width="222" height="66" viewBox="0 0 222 66" fill="none" xmlns="http://www.w3.org/2000/svg">
<g clip-path="url(#clip0_85_3832)">
<g filter="url(#filter0_d_85_3832)">
<path d="M214.064 0.854736H7.59699C3.63078 0.854736 0.415527 4.06999 0.415527 8.0362V58.3065C0.415527 62.2727 3.63078 65.4879 7.59699 65.4879H214.064C218.03 65.4879 221.246 62.2727 221.246 58.3065V8.0362C221.246 4.06999 218.03 0.854736 214.064 0.854736Z" fill="black"/>
</g>
<path d="M80.0034 16.8631C80.0314 17.4317 79.9436 18 79.7452 18.5336C79.5466 19.0671 79.2418 19.5547 78.849 19.9668C78.4086 20.4237 77.8768 20.7822 77.2882 21.0194C76.6995 21.2564 76.0676 21.3666 75.4336 21.3425C74.4749 21.3316 73.5404 21.0388 72.747 20.5005C71.9535 19.9623 71.3359 19.2023 70.9711 18.3156C70.6064 17.4288 70.5106 16.4544 70.6957 15.5136C70.8809 14.5728 71.3388 13.7072 72.0124 13.0248C72.4578 12.5719 72.991 12.2144 73.5792 11.9742C74.1674 11.7341 74.7984 11.6163 75.4336 11.628C76.0897 11.6261 76.739 11.7583 77.3423 12.0163C77.9023 12.2433 78.4005 12.5997 78.7962 13.0564L77.9789 13.8737C77.6669 13.5076 77.2751 13.2179 76.8335 13.0269C76.392 12.8359 75.9126 12.7486 75.4322 12.7719C74.9485 12.7695 74.4693 12.8646 74.0232 13.0516C73.5772 13.2386 73.1734 13.5137 72.8361 13.8604C72.4989 14.207 72.235 14.6182 72.0603 15.0692C71.8858 15.5202 71.8038 16.0019 71.8196 16.4853C71.8086 17.2092 72.0127 17.9201 72.4059 18.528C72.7993 19.1359 73.3641 19.6134 74.0291 19.9C74.6939 20.1865 75.429 20.2693 76.1408 20.1379C76.8529 20.0064 77.5098 19.6666 78.0287 19.1615C78.5057 18.6469 78.7822 17.9782 78.8082 17.277H75.4291V16.1617H79.9357C79.979 16.393 80.0018 16.6277 80.0034 16.8631Z" fill="#B6F6FF"/>
<path d="M80.0034 16.8631C80.0314 17.4317 79.9436 18 79.7452 18.5336C79.5466 19.0671 79.2418 19.5547 78.849 19.9668C78.4086 20.4237 77.8768 20.7822 77.2882 21.0194C76.6995 21.2564 76.0676 21.3666 75.4336 21.3425C74.4749 21.3316 73.5404 21.0388 72.747 20.5005C71.9535 19.9623 71.3359 19.2023 70.9711 18.3156C70.6064 17.4288 70.5106 16.4544 70.6957 15.5136C70.8809 14.5728 71.3388 13.7072 72.0124 13.0248C72.4578 12.5719 72.991 12.2144 73.5792 11.9742C74.1674 11.7341 74.7984 11.6163 75.4336 11.628C76.0897 11.6261 76.739 11.7583 77.3423 12.0163C77.9023 12.2433 78.4005 12.5997 78.7962 13.0564L77.9789 13.8737C77.6669 13.5076 77.2751 13.2179 76.8335 13.0269C76.392 12.8359 75.9126 12.7486 75.4322 12.7719C74.9485 12.7695 74.4693 12.8646 74.0232 13.0516C73.5772 13.2386 73.1734 13.5137 72.8361 13.8604C72.4989 14.207 72.235 14.6182 72.0603 15.0692C71.8858 15.5202 71.8038 16.0019 71.8196 16.4853C71.8086 17.2092 72.0127 17.9201 72.4059 18.528C72.7993 19.1359 73.3641 19.6134 74.0291 19.9C74.6939 20.1865 75.429 20.2693 76.1408 20.1379C76.8529 20.0064 77.5098 19.6666 78.0287 19.1615C78.5057 18.6469 78.7822 17.9782 78.8082 17.277H75.4291V16.1617H79.9357C79.979 16.393 80.0018 16.6277 80.0034 16.8631Z" fill="url(#paint0_linear_85_3832)"/>
<path d="M87.1455 12.9801H82.9099V15.9288H86.7286V17.0441H82.9099V19.9929H87.1455V21.1353H81.7163V11.8376H87.1455V12.9801Z" fill="#B6F6FF"/>
<path d="M87.1455 12.9801H82.9099V15.9288H86.7286V17.0441H82.9099V19.9929H87.1455V21.1353H81.7163V11.8376H87.1455V12.9801Z" fill="url(#paint1_linear_85_3832)"/>
<path d="M92.1825 21.1367H90.9859V12.9801H88.3894V11.8376H94.7789V12.9801H92.1825V21.1367Z" fill="#B6F6FF"/>
<path d="M92.1825 21.1367H90.9859V12.9801H88.3894V11.8376H94.7789V12.9801H92.1825V21.1367Z" fill="url(#paint2_linear_85_3832)"/>
<path d="M99.4036 21.1367V11.8376H100.597V21.1367H99.4036Z" fill="#B6F6FF"/>
<path d="M99.4036 21.1367V11.8376H100.597V21.1367H99.4036Z" fill="url(#paint3_linear_85_3832)"/>
<path d="M105.895 21.1367H104.7V12.9801H102.104V11.8376H108.493V12.9801H105.895V21.1367Z" fill="#B6F6FF"/>
<path d="M105.895 21.1367H104.7V12.9801H102.104V11.8376H108.493V12.9801H105.895V21.1367Z" fill="url(#paint4_linear_85_3832)"/>
<path d="M120.59 19.9351C119.685 20.8371 118.459 21.3436 117.181 21.3436C115.903 21.3436 114.678 20.8371 113.773 19.9351C112.893 19.0026 112.402 17.7689 112.402 16.4867C112.402 15.2045 112.893 13.9708 113.773 13.0383C114.676 12.1353 115.901 11.6279 117.178 11.6279C118.455 11.6279 119.68 12.1353 120.584 13.0383C121.465 13.9688 121.957 15.2019 121.957 16.4837C121.957 17.7656 121.465 18.9987 120.584 19.9292L120.59 19.9351ZM114.655 19.1554C115.325 19.8247 116.234 20.2005 117.181 20.2005C118.128 20.2005 119.037 19.8247 119.708 19.1554C120.373 18.4258 120.741 17.4741 120.741 16.4867C120.741 15.4994 120.373 14.5477 119.708 13.818C119.037 13.1488 118.128 12.7729 117.181 12.7729C116.234 12.7729 115.325 13.1488 114.655 13.818C113.991 14.5482 113.622 15.4997 113.622 16.4867C113.622 17.4738 113.991 18.4253 114.655 19.1554Z" fill="#B6F6FF"/>
<path d="M120.59 19.9351C119.685 20.8371 118.459 21.3436 117.181 21.3436C115.903 21.3436 114.678 20.8371 113.773 19.9351C112.893 19.0026 112.402 17.7689 112.402 16.4867C112.402 15.2045 112.893 13.9708 113.773 13.0383C114.676 12.1353 115.901 11.6279 117.178 11.6279C118.455 11.6279 119.68 12.1353 120.584 13.0383C121.465 13.9688 121.957 15.2019 121.957 16.4837C121.957 17.7656 121.465 18.9987 120.584 19.9292L120.59 19.9351ZM114.655 19.1554C115.325 19.8247 116.234 20.2005 117.181 20.2005C118.128 20.2005 119.037 19.8247 119.708 19.1554C120.373 18.4258 120.741 17.4741 120.741 16.4867C120.741 15.4994 120.373 14.5477 119.708 13.818C119.037 13.1488 118.128 12.7729 117.181 12.7729C116.234 12.7729 115.325 13.1488 114.655 13.818C113.991 14.5482 113.622 15.4997 113.622 16.4867C113.622 17.4738 113.991 18.4253 114.655 19.1554Z" fill="url(#paint5_linear_85_3832)"/>
<path d="M123.637 21.1367V11.8376H125.093L129.608 19.07H129.66L129.608 17.2789V11.8376H130.804V21.1367H129.56L124.832 13.5521H124.781L124.832 15.3448V21.1367H123.637Z" fill="#B6F6FF"/>
<path d="M123.637 21.1367V11.8376H125.093L129.608 19.07H129.66L129.608 17.2789V11.8376H130.804V21.1367H129.56L124.832 13.5521H124.781L124.832 15.3448V21.1367H123.637Z" fill="url(#paint6_linear_85_3832)"/>
<path d="M112.108 34.7003C110.806 34.7066 109.535 35.0983 108.455 35.8263C107.375 36.5545 106.535 37.586 106.041 38.791C105.547 39.9959 105.421 41.3202 105.679 42.5967C105.937 43.8732 106.567 45.0447 107.49 45.9634C108.413 46.882 109.588 47.5066 110.866 47.7584C112.143 48.0101 113.467 47.8778 114.669 47.3779C115.872 46.8783 116.9 46.0334 117.622 44.9502C118.345 43.8669 118.731 42.5938 118.731 41.2914C118.744 40.4198 118.581 39.5542 118.253 38.7467C117.924 37.939 117.436 37.2059 116.818 36.5908C116.2 35.9757 115.465 35.4913 114.655 35.1666C113.846 34.8418 112.98 34.6832 112.108 34.7003ZM112.108 45.2849C111.306 45.3423 110.505 45.1567 109.809 44.7524C109.114 44.3482 108.556 43.7437 108.209 43.0181C107.862 42.2924 107.741 41.4791 107.863 40.6839C107.985 39.8885 108.343 39.1485 108.891 38.5598C109.439 37.9711 110.152 37.5612 110.937 37.3835C111.722 37.2055 112.541 37.2682 113.29 37.563C114.038 37.8578 114.681 38.3711 115.133 39.0361C115.586 39.7011 115.828 40.4871 115.828 41.2914C115.852 41.7995 115.774 42.3074 115.6 42.785C115.425 43.2626 115.156 43.7005 114.81 44.0728C114.463 44.445 114.045 44.7441 113.582 44.9526C113.118 45.161 112.617 45.2745 112.108 45.2863V45.2849ZM97.6748 34.7003C96.3726 34.7066 95.1013 35.0983 94.0216 35.8263C92.9418 36.5545 92.102 37.586 91.6079 38.791C91.1138 39.9959 90.9878 41.3202 91.2458 42.5967C91.5036 43.8732 92.1338 45.0447 93.0569 45.9634C93.9799 46.882 95.1545 47.5066 96.4322 47.7584C97.7098 48.0101 99.0335 47.8778 100.236 47.3779C101.439 46.8783 102.466 46.0334 103.189 44.9502C103.912 43.8669 104.298 42.5938 104.298 41.2914C104.311 40.4198 104.148 39.5542 103.819 38.7467C103.491 37.939 103.003 37.2059 102.385 36.5908C101.767 35.9757 101.031 35.4913 100.222 35.1666C99.4129 34.8418 98.5466 34.6832 97.6748 34.7003ZM97.6748 45.2849C96.8724 45.3423 96.0713 45.1567 95.3758 44.7524C94.6805 44.3482 94.1228 43.7437 93.7756 43.0181C93.4286 42.2924 93.3079 41.4791 93.4296 40.6839C93.5514 39.8885 93.9095 39.1485 94.4579 38.5598C95.0062 37.9711 95.7191 37.5612 96.5035 37.3835C97.2881 37.2055 98.108 37.2682 98.8565 37.563C99.605 37.8578 100.247 38.3711 100.7 39.0361C101.153 39.7011 101.395 40.4871 101.394 41.2914C101.419 41.7995 101.341 42.3074 101.166 42.785C100.992 43.2626 100.723 43.7005 100.376 44.0728C100.03 44.445 99.6122 44.7441 99.1482 44.9526C98.6843 45.161 98.1832 45.2745 97.6748 45.2863V45.2849ZM80.505 36.7233V39.5183H87.1956C87.0992 40.8293 86.5631 42.0694 85.6738 43.0376C85.0033 43.7211 84.1968 44.2565 83.3065 44.6091C82.4161 44.9617 81.4619 45.1237 80.505 45.0847C78.5504 45.0569 76.685 44.2608 75.3126 42.8687C73.94 41.4765 73.1707 39.6002 73.1707 37.6452C73.1707 35.6903 73.94 33.8139 75.3126 32.4218C76.685 31.0297 78.5504 30.2336 80.505 30.2058C82.3833 30.1812 84.1955 30.899 85.5474 32.2031L87.5148 30.2313C86.592 29.3178 85.4961 28.5975 84.2914 28.1129C83.0867 27.6282 81.7975 27.389 80.4991 27.4091C77.7845 27.4091 75.181 28.4874 73.2616 30.407C71.342 32.3265 70.2637 34.9299 70.2637 37.6445C70.2637 40.3591 71.342 42.9624 73.2616 44.882C75.181 46.8014 77.7845 47.8797 80.4991 47.8797C81.8249 47.9348 83.1472 47.7074 84.3783 47.2122C85.6096 46.717 86.7213 45.9657 87.6396 45.0079C89.2725 43.2321 90.1459 40.888 90.0736 38.4768C90.0802 37.8914 90.0298 37.3064 89.9231 36.7309L80.505 36.7233ZM150.722 38.8953C150.326 37.7014 149.572 36.6587 148.562 35.9084C147.553 35.1583 146.337 34.7369 145.08 34.7017C144.233 34.7069 143.396 34.8838 142.619 35.2217C141.842 35.5596 141.142 36.0515 140.561 36.6675C139.98 37.2836 139.53 38.0113 139.238 38.8063C138.946 39.6013 138.819 40.4473 138.863 41.2931C138.844 42.1597 139 43.0213 139.321 43.8263C139.642 44.6314 140.123 45.3633 140.733 45.9786C141.344 46.5939 142.072 47.0797 142.875 47.4072C143.678 47.7345 144.538 47.8968 145.405 47.8844C146.491 47.8903 147.561 47.6266 148.52 47.1165C149.478 46.6066 150.295 45.8666 150.897 44.9628L148.65 43.4576C148.313 44.0166 147.837 44.4788 147.268 44.7982C146.699 45.1177 146.057 45.284 145.405 45.2804C144.734 45.3068 144.071 45.1316 143.501 44.7775C142.931 44.4233 142.481 43.9064 142.208 43.2935L151.022 39.6464L150.722 38.8953ZM141.733 41.0929C141.702 40.613 141.767 40.1316 141.924 39.6771C142.08 39.2225 142.327 38.8038 142.648 38.4456C142.968 38.0873 143.358 37.7968 143.792 37.591C144.227 37.3853 144.699 37.2682 145.179 37.247C145.679 37.2136 146.178 37.3285 146.613 37.5774C147.049 37.826 147.401 38.1975 147.626 38.6454L141.733 41.0929ZM134.569 47.4838H137.463V28.1075H134.569V47.4838ZM129.823 36.1739H129.724C129.283 35.6958 128.746 35.3172 128.148 35.0633C127.549 34.8095 126.904 34.6863 126.254 34.7017C124.555 34.7744 122.949 35.5007 121.772 36.7287C120.596 37.9569 119.939 39.5921 119.939 41.2931C119.939 42.994 120.596 44.6292 121.772 45.8572C122.949 47.0855 124.555 47.8117 126.254 47.8844C126.907 47.9009 127.556 47.7747 128.155 47.5147C128.754 47.2548 129.29 46.8673 129.724 46.3792H129.823V47.3289C129.823 49.8501 128.476 51.1988 126.304 51.1988C125.58 51.181 124.877 50.9484 124.286 50.5302C123.695 50.1121 123.241 49.5273 122.983 48.8507L120.462 49.9044C120.938 51.0615 121.748 52.0502 122.789 52.7441C123.83 53.4378 125.054 53.8048 126.305 53.7981C129.701 53.7981 132.573 51.8008 132.573 46.933V35.0992H129.823V36.1739ZM126.499 45.2863C125.497 45.2037 124.562 44.747 123.88 44.0069C123.199 43.2669 122.82 42.2976 122.82 41.2914C122.82 40.2855 123.199 39.3162 123.88 38.5761C124.562 37.8361 125.497 37.3793 126.499 37.2968C126.997 37.3212 127.485 37.4458 127.934 37.6628C128.383 37.8799 128.783 38.1851 129.112 38.5603C129.44 38.9356 129.69 39.3729 129.846 39.8465C130.001 40.3202 130.06 40.8203 130.019 41.3171C130.058 41.8108 129.997 42.3073 129.84 42.7769C129.682 43.2466 129.432 43.6796 129.103 44.0502C128.775 44.4208 128.375 44.7213 127.927 44.9337C127.48 45.1461 126.994 45.266 126.499 45.2863ZM164.28 28.1106H157.356V47.4838H160.246V40.1431H164.284C165.881 40.1431 167.413 39.5086 168.542 38.3795C169.671 37.2504 170.305 35.7192 170.305 34.1222C170.305 32.5254 169.671 30.9941 168.542 29.865C167.413 28.7357 165.881 28.1014 164.284 28.1014L164.28 28.1106ZM164.354 37.4427H160.24V30.8002H164.354C165.234 30.8002 166.079 31.1501 166.702 31.7728C167.324 32.3956 167.674 33.2401 167.674 34.1207C167.674 35.0014 167.324 35.8459 166.702 36.4687C166.079 37.0914 165.234 37.4413 164.354 37.4413V37.4427ZM182.226 34.6612C181.17 34.5994 180.12 34.8472 179.203 35.3739C178.287 35.9007 177.543 36.6835 177.065 37.6264L179.633 38.6997C179.888 38.2312 180.272 37.8474 180.743 37.595C181.211 37.3427 181.745 37.2327 182.276 37.2786C183.01 37.2073 183.741 37.4298 184.312 37.8973C184.881 38.3648 185.244 39.0393 185.317 39.7727V39.9715C184.389 39.4774 183.357 39.2189 182.307 39.2189C179.54 39.2189 176.722 40.7392 176.722 43.584C176.748 44.1834 176.896 44.7716 177.154 45.3132C177.412 45.8547 177.777 46.3389 178.227 46.7366C178.676 47.1345 179.201 47.4379 179.77 47.6289C180.339 47.8198 180.94 47.8944 181.538 47.8481C182.267 47.8912 182.994 47.7381 183.642 47.4047C184.292 47.0714 184.84 46.5702 185.229 45.9531H185.328V47.4494H188.12V40.0227C188.118 36.5833 185.551 34.6656 182.237 34.6656L182.226 34.6612ZM181.877 45.2788C180.93 45.2788 179.609 44.8062 179.609 43.6351C179.609 42.139 181.253 41.5654 182.675 41.5654C183.597 41.541 184.509 41.7645 185.317 42.2126C185.211 43.0516 184.808 43.8244 184.177 44.3886C183.549 44.9529 182.736 45.2705 181.89 45.2833L181.877 45.2788ZM198.284 35.0841L194.973 43.4847H194.872L191.432 35.0841H188.316L193.476 46.8246L190.535 53.3558H193.546L201.497 35.0856L198.284 35.0841ZM172.244 47.4794H175.135V28.109H172.244V47.4794Z" fill="#B6F6FF"/>
<path d="M112.108 34.7003C110.806 34.7066 109.535 35.0983 108.455 35.8263C107.375 36.5545 106.535 37.586 106.041 38.791C105.547 39.9959 105.421 41.3202 105.679 42.5967C105.937 43.8732 106.567 45.0447 107.49 45.9634C108.413 46.882 109.588 47.5066 110.866 47.7584C112.143 48.0101 113.467 47.8778 114.669 47.3779C115.872 46.8783 116.9 46.0334 117.622 44.9502C118.345 43.8669 118.731 42.5938 118.731 41.2914C118.744 40.4198 118.581 39.5542 118.253 38.7467C117.924 37.939 117.436 37.2059 116.818 36.5908C116.2 35.9757 115.465 35.4913 114.655 35.1666C113.846 34.8418 112.98 34.6832 112.108 34.7003ZM112.108 45.2849C111.306 45.3423 110.505 45.1567 109.809 44.7524C109.114 44.3482 108.556 43.7437 108.209 43.0181C107.862 42.2924 107.741 41.4791 107.863 40.6839C107.985 39.8885 108.343 39.1485 108.891 38.5598C109.439 37.9711 110.152 37.5612 110.937 37.3835C111.722 37.2055 112.541 37.2682 113.29 37.563C114.038 37.8578 114.681 38.3711 115.133 39.0361C115.586 39.7011 115.828 40.4871 115.828 41.2914C115.852 41.7995 115.774 42.3074 115.6 42.785C115.425 43.2626 115.156 43.7005 114.81 44.0728C114.463 44.445 114.045 44.7441 113.582 44.9526C113.118 45.161 112.617 45.2745 112.108 45.2863V45.2849ZM97.6748 34.7003C96.3726 34.7066 95.1013 35.0983 94.0216 35.8263C92.9418 36.5545 92.102 37.586 91.6079 38.791C91.1138 39.9959 90.9878 41.3202 91.2458 42.5967C91.5036 43.8732 92.1338 45.0447 93.0569 45.9634C93.9799 46.882 95.1545 47.5066 96.4322 47.7584C97.7098 48.0101 99.0335 47.8778 100.236 47.3779C101.439 46.8783 102.466 46.0334 103.189 44.9502C103.912 43.8669 104.298 42.5938 104.298 41.2914C104.311 40.4198 104.148 39.5542 103.819 38.7467C103.491 37.939 103.003 37.2059 102.385 36.5908C101.767 35.9757 101.031 35.4913 100.222 35.1666C99.4129 34.8418 98.5466 34.6832 97.6748 34.7003ZM97.6748 45.2849C96.8724 45.3423 96.0713 45.1567 95.3758 44.7524C94.6805 44.3482 94.1228 43.7437 93.7756 43.0181C93.4286 42.2924 93.3079 41.4791 93.4296 40.6839C93.5514 39.8885 93.9095 39.1485 94.4579 38.5598C95.0062 37.9711 95.7191 37.5612 96.5035 37.3835C97.2881 37.2055 98.108 37.2682 98.8565 37.563C99.605 37.8578 100.247 38.3711 100.7 39.0361C101.153 39.7011 101.395 40.4871 101.394 41.2914C101.419 41.7995 101.341 42.3074 101.166 42.785C100.992 43.2626 100.723 43.7005 100.376 44.0728C100.03 44.445 99.6122 44.7441 99.1482 44.9526C98.6843 45.161 98.1832 45.2745 97.6748 45.2863V45.2849ZM80.505 36.7233V39.5183H87.1956C87.0992 40.8293 86.5631 42.0694 85.6738 43.0376C85.0033 43.7211 84.1968 44.2565 83.3065 44.6091C82.4161 44.9617 81.4619 45.1237 80.505 45.0847C78.5504 45.0569 76.685 44.2608 75.3126 42.8687C73.94 41.4765 73.1707 39.6002 73.1707 37.6452C73.1707 35.6903 73.94 33.8139 75.3126 32.4218C76.685 31.0297 78.5504 30.2336 80.505 30.2058C82.3833 30.1812 84.1955 30.899 85.5474 32.2031L87.5148 30.2313C86.592 29.3178 85.4961 28.5975 84.2914 28.1129C83.0867 27.6282 81.7975 27.389 80.4991 27.4091C77.7845 27.4091 75.181 28.4874 73.2616 30.407C71.342 32.3265 70.2637 34.9299 70.2637 37.6445C70.2637 40.3591 71.342 42.9624 73.2616 44.882C75.181 46.8014 77.7845 47.8797 80.4991 47.8797C81.8249 47.9348 83.1472 47.7074 84.3783 47.2122C85.6096 46.717 86.7213 45.9657 87.6396 45.0079C89.2725 43.2321 90.1459 40.888 90.0736 38.4768C90.0802 37.8914 90.0298 37.3064 89.9231 36.7309L80.505 36.7233ZM150.722 38.8953C150.326 37.7014 149.572 36.6587 148.562 35.9084C147.553 35.1583 146.337 34.7369 145.08 34.7017C144.233 34.7069 143.396 34.8838 142.619 35.2217C141.842 35.5596 141.142 36.0515 140.561 36.6675C139.98 37.2836 139.53 38.0113 139.238 38.8063C138.946 39.6013 138.819 40.4473 138.863 41.2931C138.844 42.1597 139 43.0213 139.321 43.8263C139.642 44.6314 140.123 45.3633 140.733 45.9786C141.344 46.5939 142.072 47.0797 142.875 47.4072C143.678 47.7345 144.538 47.8968 145.405 47.8844C146.491 47.8903 147.561 47.6266 148.52 47.1165C149.478 46.6066 150.295 45.8666 150.897 44.9628L148.65 43.4576C148.313 44.0166 147.837 44.4788 147.268 44.7982C146.699 45.1177 146.057 45.284 145.405 45.2804C144.734 45.3068 144.071 45.1316 143.501 44.7775C142.931 44.4233 142.481 43.9064 142.208 43.2935L151.022 39.6464L150.722 38.8953ZM141.733 41.0929C141.702 40.613 141.767 40.1316 141.924 39.6771C142.08 39.2225 142.327 38.8038 142.648 38.4456C142.968 38.0873 143.358 37.7968 143.792 37.591C144.227 37.3853 144.699 37.2682 145.179 37.247C145.679 37.2136 146.178 37.3285 146.613 37.5774C147.049 37.826 147.401 38.1975 147.626 38.6454L141.733 41.0929ZM134.569 47.4838H137.463V28.1075H134.569V47.4838ZM129.823 36.1739H129.724C129.283 35.6958 128.746 35.3172 128.148 35.0633C127.549 34.8095 126.904 34.6863 126.254 34.7017C124.555 34.7744 122.949 35.5007 121.772 36.7287C120.596 37.9569 119.939 39.5921 119.939 41.2931C119.939 42.994 120.596 44.6292 121.772 45.8572C122.949 47.0855 124.555 47.8117 126.254 47.8844C126.907 47.9009 127.556 47.7747 128.155 47.5147C128.754 47.2548 129.29 46.8673 129.724 46.3792H129.823V47.3289C129.823 49.8501 128.476 51.1988 126.304 51.1988C125.58 51.181 124.877 50.9484 124.286 50.5302C123.695 50.1121 123.241 49.5273 122.983 48.8507L120.462 49.9044C120.938 51.0615 121.748 52.0502 122.789 52.7441C123.83 53.4378 125.054 53.8048 126.305 53.7981C129.701 53.7981 132.573 51.8008 132.573 46.933V35.0992H129.823V36.1739ZM126.499 45.2863C125.497 45.2037 124.562 44.747 123.88 44.0069C123.199 43.2669 122.82 42.2976 122.82 41.2914C122.82 40.2855 123.199 39.3162 123.88 38.5761C124.562 37.8361 125.497 37.3793 126.499 37.2968C126.997 37.3212 127.485 37.4458 127.934 37.6628C128.383 37.8799 128.783 38.1851 129.112 38.5603C129.44 38.9356 129.69 39.3729 129.846 39.8465C130.001 40.3202 130.06 40.8203 130.019 41.3171C130.058 41.8108 129.997 42.3073 129.84 42.7769C129.682 43.2466 129.432 43.6796 129.103 44.0502C128.775 44.4208 128.375 44.7213 127.927 44.9337C127.48 45.1461 126.994 45.266 126.499 45.2863ZM164.28 28.1106H157.356V47.4838H160.246V40.1431H164.284C165.881 40.1431 167.413 39.5086 168.542 38.3795C169.671 37.2504 170.305 35.7192 170.305 34.1222C170.305 32.5254 169.671 30.9941 168.542 29.865C167.413 28.7357 165.881 28.1014 164.284 28.1014L164.28 28.1106ZM164.354 37.4427H160.24V30.8002H164.354C165.234 30.8002 166.079 31.1501 166.702 31.7728C167.324 32.3956 167.674 33.2401 167.674 34.1207C167.674 35.0014 167.324 35.8459 166.702 36.4687C166.079 37.0914 165.234 37.4413 164.354 37.4413V37.4427ZM182.226 34.6612C181.17 34.5994 180.12 34.8472 179.203 35.3739C178.287 35.9007 177.543 36.6835 177.065 37.6264L179.633 38.6997C179.888 38.2312 180.272 37.8474 180.743 37.595C181.211 37.3427 181.745 37.2327 182.276 37.2786C183.01 37.2073 183.741 37.4298 184.312 37.8973C184.881 38.3648 185.244 39.0393 185.317 39.7727V39.9715C184.389 39.4774 183.357 39.2189 182.307 39.2189C179.54 39.2189 176.722 40.7392 176.722 43.584C176.748 44.1834 176.896 44.7716 177.154 45.3132C177.412 45.8547 177.777 46.3389 178.227 46.7366C178.676 47.1345 179.201 47.4379 179.77 47.6289C180.339 47.8198 180.94 47.8944 181.538 47.8481C182.267 47.8912 182.994 47.7381 183.642 47.4047C184.292 47.0714 184.84 46.5702 185.229 45.9531H185.328V47.4494H188.12V40.0227C188.118 36.5833 185.551 34.6656 182.237 34.6656L182.226 34.6612ZM181.877 45.2788C180.93 45.2788 179.609 44.8062 179.609 43.6351C179.609 42.139 181.253 41.5654 182.675 41.5654C183.597 41.541 184.509 41.7645 185.317 42.2126C185.211 43.0516 184.808 43.8244 184.177 44.3886C183.549 44.9529 182.736 45.2705 181.89 45.2833L181.877 45.2788ZM198.284 35.0841L194.973 43.4847H194.872L191.432 35.0841H188.316L193.476 46.8246L190.535 53.3558H193.546L201.497 35.0856L198.284 35.0841ZM172.244 47.4794H175.135V28.109H172.244V47.4794Z" fill="url(#paint7_linear_85_3832)"/>
<path d="M22.683 12.6734C22.1755 13.2817 21.9193 14.0607 21.9665 14.8515V49.1264C21.9191 49.9172 22.1753 50.6962 22.683 51.3043L22.7974 51.4158L41.9978 32.2154V31.7639L22.7974 12.5605L22.683 12.6734Z" fill="url(#paint8_linear_85_3832)"/>
<path d="M48.398 38.6156L42.001 32.2124V31.7609L48.4025 25.3591L48.553 25.4435L56.1363 29.7513C58.3008 30.9826 58.3008 32.995 56.1363 34.2263L48.553 38.5343L48.398 38.6156Z" fill="url(#paint9_linear_85_3832)"/>
<path d="M48.5439 38.5341L41.9978 31.9866L22.6831 51.3027C23.1248 51.6922 23.6887 51.9148 24.2772 51.9322C24.8659 51.9494 25.4419 51.7604 25.9058 51.3975L48.5439 38.5341Z" fill="url(#paint10_linear_85_3832)"/>
<path d="M48.5439 25.441L25.9058 12.5776C25.442 12.2146 24.8659 12.0253 24.2772 12.0426C23.6887 12.0599 23.1246 12.2827 22.6831 12.6724L41.9978 31.9871L48.5439 25.441Z" fill="url(#paint11_linear_85_3832)"/>
<path opacity="0.2" d="M48.3994 38.3894L25.9042 51.1699C25.4586 51.5096 24.9146 51.6947 24.3544 51.6977C23.7941 51.7008 23.2481 51.5213 22.7989 51.1866L22.6831 51.301L22.7975 51.4139C23.2467 51.7485 23.7926 51.9281 24.3528 51.925C24.9131 51.922 25.4571 51.7369 25.9027 51.3972L48.5423 38.5338L48.3994 38.3894Z" fill="black"/>
<path opacity="0.12" d="M22.6831 51.0768C22.1753 50.4685 21.9192 49.6895 21.9665 48.8987V49.126C21.919 49.9163 22.1753 50.6949 22.6831 51.3025L22.7989 51.1881L22.6831 51.0768Z" fill="black"/>
<path opacity="0.12" d="M56.1279 33.9983L48.4001 38.389L48.5508 38.5395L56.1339 34.2317C56.58 34.0363 56.9653 33.725 57.25 33.3299C57.5346 32.9349 57.708 32.4708 57.752 31.9858C57.6567 32.4246 57.4601 32.8349 57.1782 33.1842C56.8962 33.5336 56.5366 33.8124 56.1279 33.9983Z" fill="black"/>
<g opacity="0.25">
<path d="M25.9049 12.8045L56.1277 29.9774C56.5364 30.163 56.8958 30.4415 57.1778 30.7907C57.4597 31.1397 57.6563 31.5498 57.752 31.9882C57.7059 31.5051 57.5308 31.0431 57.2452 30.6507C56.9593 30.2582 56.5735 29.9497 56.1277 29.7576L25.9049 12.5787C23.739 11.3475 21.9673 12.371 21.9673 14.8501V15.0774C21.9673 12.5983 23.739 11.5748 25.9049 12.8045Z" fill="#B6F6FF"/>
<path d="M25.9049 12.8045L56.1277 29.9774C56.5364 30.163 56.8958 30.4415 57.1778 30.7907C57.4597 31.1397 57.6563 31.5498 57.752 31.9882C57.7059 31.5051 57.5308 31.0431 57.2452 30.6507C56.9593 30.2582 56.5735 29.9497 56.1277 29.7576L25.9049 12.5787C23.739 11.3475 21.9673 12.371 21.9673 14.8501V15.0774C21.9673 12.5983 23.739 11.5748 25.9049 12.8045Z" fill="url(#paint12_linear_85_3832)"/>
</g>
</g>
<defs>
<filter id="filter0_d_85_3832" x="-28.3103" y="-20.6897" width="278.282" height="122.085" filterUnits="userSpaceOnUse" color-interpolation-filters="sRGB">
<feFlood flood-opacity="0" result="BackgroundImageFix"/>
<feColorMatrix in="SourceAlpha" type="matrix" values="0 0 0 0 0 0 0 0 0 0 0 0 0 0 0 0 0 0 127 0" result="hardAlpha"/>
<feOffset dy="7.18147"/>
<feGaussianBlur stdDeviation="14.3629"/>
<feColorMatrix type="matrix" values="0 0 0 0 0.337255 0 0 0 0 0.486275 0 0 0 0 0.678431 0 0 0 0.16 0"/>
<feBlend mode="normal" in2="BackgroundImageFix" result="effect1_dropShadow_85_3832"/>
<feBlend mode="normal" in="SourceGraphic" in2="effect1_dropShadow_85_3832" result="shape"/>
</filter>
<linearGradient id="paint0_linear_85_3832" x1="75.3061" y1="11.6272" x2="75.3061" y2="21.3458" gradientUnits="userSpaceOnUse">
<stop stop-color="white"/>
<stop offset="1" stop-color="white" stop-opacity="0"/>
</linearGradient>
<linearGradient id="paint1_linear_85_3832" x1="84.4309" y1="11.8376" x2="84.4309" y2="21.1353" gradientUnits="userSpaceOnUse">
<stop stop-color="white"/>
<stop offset="1" stop-color="white" stop-opacity="0"/>
</linearGradient>
<linearGradient id="paint2_linear_85_3832" x1="91.5842" y1="11.8376" x2="91.5842" y2="21.1367" gradientUnits="userSpaceOnUse">
<stop stop-color="white"/>
<stop offset="1" stop-color="white" stop-opacity="0"/>
</linearGradient>
<linearGradient id="paint3_linear_85_3832" x1="100" y1="11.8376" x2="100" y2="21.1367" gradientUnits="userSpaceOnUse">
<stop stop-color="white"/>
<stop offset="1" stop-color="white" stop-opacity="0"/>
</linearGradient>
<linearGradient id="paint4_linear_85_3832" x1="105.298" y1="11.8376" x2="105.298" y2="21.1367" gradientUnits="userSpaceOnUse">
<stop stop-color="white"/>
<stop offset="1" stop-color="white" stop-opacity="0"/>
</linearGradient>
<linearGradient id="paint5_linear_85_3832" x1="117.18" y1="11.6279" x2="117.18" y2="21.3436" gradientUnits="userSpaceOnUse">
<stop stop-color="white"/>
<stop offset="1" stop-color="white" stop-opacity="0"/>
</linearGradient>
<linearGradient id="paint6_linear_85_3832" x1="127.22" y1="11.8376" x2="127.22" y2="21.1367" gradientUnits="userSpaceOnUse">
<stop stop-color="white"/>
<stop offset="1" stop-color="white" stop-opacity="0"/>
</linearGradient>
<linearGradient id="paint7_linear_85_3832" x1="135.88" y1="27.408" x2="135.88" y2="53.7982" gradientUnits="userSpaceOnUse">
<stop stop-color="white"/>
<stop offset="1" stop-color="white" stop-opacity="0"/>
</linearGradient>
<linearGradient id="paint8_linear_85_3832" x1="40.2945" y1="269.549" x2="9.54987" y2="261.378" gradientUnits="userSpaceOnUse">
<stop stop-color="#00A0FF"/>
<stop offset="0.007" stop-color="#00A1FF"/>
<stop offset="0.26" stop-color="#00BEFF"/>
<stop offset="0.512" stop-color="#00D2FF"/>
<stop offset="0.76" stop-color="#00DFFF"/>
<stop offset="1" stop-color="#00E3FF"/>
</linearGradient>
<linearGradient id="paint9_linear_85_3832" x1="58.9573" y1="252.016" x2="21.4358" y2="252.016" gradientUnits="userSpaceOnUse">
<stop stop-color="#FFE000"/>
<stop offset="0.409" stop-color="#FFBD00"/>
<stop offset="0.775" stop-color="#FFA500"/>
<stop offset="1" stop-color="#FF9C00"/>
</linearGradient>
<linearGradient id="paint10_linear_85_3832" x1="44.9751" y1="248.667" x2="20.2818" y2="207.094" gradientUnits="userSpaceOnUse">
<stop stop-color="#FF3A44"/>
<stop offset="1" stop-color="#C31162"/>
</linearGradient>
<linearGradient id="paint11_linear_85_3832" x1="17.8213" y1="282.963" x2="28.8563" y2="264.403" gradientUnits="userSpaceOnUse">
<stop stop-color="#32A071"/>
<stop offset="0.068" stop-color="#2DA771"/>
<stop offset="0.476" stop-color="#15CF74"/>
<stop offset="0.801" stop-color="#06E775"/>
<stop offset="1" stop-color="#00F076"/>
</linearGradient>
<linearGradient id="paint12_linear_85_3832" x1="39.8596" y1="12.0569" x2="39.8596" y2="31.9882" gradientUnits="userSpaceOnUse">
<stop stop-color="white"/>
<stop offset="1" stop-color="white" stop-opacity="0"/>
</linearGradient>
<clipPath id="clip0_85_3832">
<rect width="220.83" height="64.6332" fill="white" transform="translate(0.41748 0.855713)"/>
</clipPath>
</defs>
</svg>
