<svg width="32" height="33" viewBox="0 0 32 33" fill="none" xmlns="http://www.w3.org/2000/svg">
<mask id="mask0_85_3854" style="mask-type:luminance" maskUnits="userSpaceOnUse" x="0" y="0" width="32" height="33">
<path d="M0.0158691 0.909668H31.1229V32.0167H0.0158691V0.909668Z" fill="white"/>
</mask>
<g mask="url(#mask0_85_3854)">
<path d="M15.5694 0.909668C15.3146 0.909668 15.0604 0.915868 14.8063 0.92883C14.5521 0.941229 14.2979 0.959828 14.0448 0.984626C13.7918 1.00999 13.5387 1.04099 13.2874 1.07818C13.0355 1.11538 12.7847 1.15878 12.535 1.20894C12.2853 1.25853 12.0373 1.31433 11.7899 1.37576C11.5431 1.43776 11.2979 1.50595 11.0544 1.57978C10.8109 1.65361 10.5692 1.73308 10.3296 1.81931C10.0901 1.90497 9.85227 1.99628 9.61726 2.09378C9.38224 2.19128 9.14947 2.29442 8.91953 2.40319C8.68958 2.51197 8.46189 2.62637 8.23758 2.74642C8.01327 2.86647 7.79177 2.99158 7.5731 3.1229C7.35499 3.25366 7.14026 3.38948 6.92835 3.53094C6.71644 3.67241 6.50847 3.81894 6.30445 3.97055C6.09987 4.12215 5.89923 4.27883 5.70253 4.44058C5.50584 4.60177 5.31309 4.76803 5.12428 4.9388C4.93548 5.11013 4.75119 5.28541 4.5714 5.4652C4.39161 5.64555 4.21577 5.82984 4.045 6.01808C3.87423 6.20689 3.70797 6.39964 3.54622 6.59633C3.38503 6.79303 3.22835 6.99366 3.07675 7.19825C2.92514 7.40283 2.77861 7.6108 2.63714 7.82215C2.49568 8.03406 2.35986 8.24879 2.22854 8.46746C2.09779 8.68557 1.97267 8.90707 1.85262 9.13138C1.73258 9.35569 1.61817 9.58338 1.50939 9.81332C1.40062 10.0433 1.29748 10.276 1.19998 10.5111C1.10248 10.7466 1.01061 10.9839 0.924946 11.2234C0.83928 11.463 0.759813 11.7047 0.685419 11.9482C0.611588 12.1917 0.543957 12.4374 0.481961 12.6843C0.419966 12.9311 0.36417 13.1791 0.314574 13.4288C0.264978 13.6785 0.221581 13.9293 0.184384 14.1812C0.147186 14.4331 0.115625 14.6856 0.0908271 14.9386C0.066029 15.1923 0.0474304 15.4459 0.0344677 15.7001C0.0220687 15.9542 0.0158691 16.209 0.0158691 16.4632C0.0158691 16.7179 0.0220687 16.9721 0.0344677 17.2263C0.0474304 17.4805 0.066029 17.7346 0.0908271 17.9877C0.115625 18.2413 0.147186 18.4938 0.184384 18.7457C0.221581 18.9971 0.264978 19.2479 0.314574 19.4976C0.36417 19.7472 0.419966 19.9958 0.481961 20.2426C0.543957 20.4895 0.611588 20.7346 0.685419 20.9781C0.759813 21.2216 0.83928 21.4634 0.924946 21.7029C1.01061 21.943 1.10248 22.1803 1.19998 22.4153C1.29748 22.6503 1.40062 22.8831 1.50939 23.113C1.61817 23.3435 1.73258 23.5707 1.85262 23.795C1.97267 24.0198 2.09779 24.2408 2.22854 24.4594C2.35986 24.6776 2.49568 24.8928 2.63714 25.1042C2.77861 25.3161 2.92514 25.5241 3.07675 25.7287C3.22835 25.9327 3.38503 26.1333 3.54622 26.3306C3.70797 26.5273 3.87423 26.72 4.045 26.9083C4.21577 27.0971 4.39161 27.2814 4.5714 27.4611C4.75119 27.6415 4.93548 27.8168 5.12428 27.9875C5.31309 28.1583 5.50584 28.3246 5.70253 28.4863C5.89923 28.6475 6.09987 28.8042 6.30445 28.9558C6.50847 29.1074 6.71644 29.2539 6.92835 29.3954C7.14026 29.5369 7.35499 29.6732 7.5731 29.804C7.79177 29.9348 8.01327 30.0604 8.23758 30.1805C8.46189 30.3 8.68958 30.4144 8.91953 30.5237C9.14947 30.6325 9.38224 30.7356 9.61726 30.8326C9.85227 30.9301 10.0901 31.0219 10.3296 31.1076C10.5692 31.1933 10.8109 31.2733 11.0544 31.3471C11.2979 31.421 11.5431 31.4886 11.7899 31.5506C12.0373 31.6126 12.2853 31.6684 12.535 31.718C12.7847 31.7676 13.0355 31.811 13.2874 31.8482C13.5387 31.8859 13.7918 31.9169 14.0448 31.9417C14.2979 31.9671 14.5521 31.9857 14.8063 31.9981C15.0604 32.0105 15.3146 32.0167 15.5694 32.0167C15.8241 32.0167 16.0783 32.0105 16.3325 31.9981C16.5867 31.9857 16.8403 31.9671 17.0939 31.9417C17.3469 31.9169 17.6 31.8859 17.8514 31.8482C18.1033 31.811 18.3541 31.7676 18.6038 31.718C18.8534 31.6684 19.1014 31.6126 19.3483 31.5506C19.5957 31.4886 19.8408 31.421 20.0843 31.3471C20.3278 31.2733 20.5696 31.1933 20.8091 31.1076C21.0486 31.0219 21.2865 30.9301 21.5215 30.8326C21.7565 30.7356 21.9893 30.6325 22.2192 30.5237C22.4492 30.4144 22.6769 30.3 22.9012 30.1805C23.1255 30.0604 23.347 29.9348 23.5656 29.804C23.7838 29.6732 23.9985 29.5369 24.2104 29.3954C24.4223 29.2539 24.6303 29.1074 24.8343 28.9558C25.0389 28.8042 25.2395 28.6475 25.4362 28.4863C25.6329 28.3246 25.8257 28.1583 26.0145 27.9875C26.2033 27.8168 26.3876 27.6415 26.5673 27.4611C26.7471 27.2814 26.923 27.0971 27.0937 26.9083C27.2645 26.72 27.4308 26.5273 27.5925 26.3306C27.7537 26.1333 27.9104 25.9327 28.062 25.7287C28.2136 25.5241 28.3601 25.3161 28.5016 25.1042C28.6431 24.8928 28.7789 24.6776 28.9102 24.4594C29.041 24.2408 29.1661 24.0198 29.2861 23.795C29.4062 23.5707 29.5206 23.3435 29.6293 23.113C29.7381 22.8831 29.8413 22.6503 29.9388 22.4153C30.0363 22.1803 30.1281 21.943 30.2138 21.7029C30.2995 21.4634 30.3789 21.2216 30.4533 20.9781C30.5272 20.7346 30.5948 20.4895 30.6568 20.2426C30.7188 19.9958 30.7746 19.7472 30.8242 19.4976C30.8738 19.2479 30.9172 18.9971 30.9544 18.7457C30.9916 18.4938 31.0231 18.2413 31.0479 17.9877C31.0727 17.7346 31.0913 17.4805 31.1043 17.2263C31.1167 16.9721 31.1229 16.7179 31.1229 16.4632C31.1223 16.209 31.1161 15.9542 31.1031 15.7006C31.0907 15.4464 31.0716 15.1923 31.0468 14.9392C31.0214 14.6862 30.9899 14.4337 30.9527 14.1817C30.9149 13.9304 30.8715 13.6796 30.8214 13.4299C30.7718 13.1802 30.716 12.9323 30.654 12.6854C30.592 12.4385 30.5238 12.1934 30.4499 11.9499C30.3755 11.7064 30.2961 11.4652 30.2099 11.2257C30.1242 10.9862 30.0323 10.7489 29.9348 10.5133C29.8373 10.2783 29.7342 10.0461 29.6254 9.81614C29.5166 9.5862 29.4022 9.3585 29.2822 9.13419C29.1621 8.90988 29.0364 8.68896 28.9057 8.47028C28.7744 8.25217 28.6385 8.03744 28.4971 7.82553C28.3556 7.61418 28.2091 7.40622 28.0575 7.20163C27.9059 6.99761 27.7492 6.79697 27.588 6.60028C27.4263 6.40358 27.26 6.21083 27.0892 6.02259C26.9185 5.83379 26.7432 5.64949 26.5628 5.46971C26.383 5.28992 26.1988 5.11408 26.0105 4.94331C25.8217 4.77254 25.629 4.60628 25.4323 4.44509C25.2356 4.28334 25.0349 4.12666 24.8309 3.97506C24.6263 3.82345 24.4184 3.67691 24.207 3.53545C23.9951 3.39399 23.7804 3.25816 23.5623 3.12741C23.3441 2.99609 23.1227 2.87097 22.8983 2.75093C22.674 2.63088 22.4469 2.51647 22.217 2.40714C21.9865 2.29836 21.7543 2.19523 21.5192 2.09772C21.2842 2.00022 21.0469 1.90836 20.8074 1.82269C20.5679 1.73702 20.3261 1.65699 20.0826 1.58316C19.8392 1.50877 19.594 1.44114 19.3471 1.37914C19.1003 1.31715 18.8523 1.26079 18.6026 1.21119C18.353 1.16159 18.1027 1.11763 17.8508 1.07987C17.5989 1.04268 17.3464 1.01111 17.0933 0.986317C16.8403 0.960955 16.5867 0.941793 16.3325 0.929394C16.0783 0.916431 15.8241 0.910232 15.5694 0.909668ZM23.3165 17.1152L11.4664 23.3514C11.3576 23.3993 11.2444 23.4236 11.1254 23.4252C10.9868 23.4281 10.8589 23.3937 10.7405 23.3215C10.6295 23.2539 10.5421 23.1637 10.479 23.0499C10.4153 22.9366 10.3843 22.8149 10.3849 22.6847V10.2417C10.3843 10.112 10.4153 9.99029 10.479 9.87645C10.5421 9.76317 10.6295 9.67243 10.7405 9.6048C10.8532 9.54167 10.9738 9.51011 11.1035 9.51011C11.2325 9.51011 11.3537 9.54167 11.4664 9.6048L23.3165 15.841C23.3774 15.8708 23.4332 15.9086 23.4834 15.9542C23.5341 15.9999 23.5769 16.0512 23.613 16.1087C23.6491 16.1667 23.6761 16.2282 23.6947 16.293C23.7133 16.3583 23.7229 16.4248 23.7229 16.493C23.7229 16.5607 23.7133 16.6272 23.6947 16.6926C23.6761 16.7579 23.6491 16.8194 23.613 16.8768C23.5769 16.9343 23.5341 16.9862 23.4834 17.0318C23.4332 17.0769 23.3774 17.1147 23.3165 17.1446V17.1152Z" fill="white"/>
</g>
</svg>
