<svg width="246" height="60" viewBox="0 0 246 60" fill="none" xmlns="http://www.w3.org/2000/svg">
<g clip-path="url(#clip0_771_238)">
<g filter="url(#filter0_ddd_771_238)">
<rect x="0.427734" y="0.00439453" width="245.143" height="60" fill="#017839"/>
<rect x="0.427734" y="0.00439453" width="245.143" height="60" fill="url(#paint0_linear_771_238)" style="mix-blend-mode:overlay"/>
</g>
<g opacity="0.5">
<rect x="0.427734" y="30.3956" width="245.143" height="29.6" fill="#E7E4F8"/>
<rect x="0.427734" y="30.3956" width="245.143" height="29.6" fill="#017A3B"/>
</g>
<g style="mix-blend-mode:overlay" opacity="0.7">
<ellipse cx="123" cy="54.7989" rx="114.692" ry="24.4" transform="rotate(-180 123 54.7989)" fill="url(#paint1_radial_771_238)"/>
</g>
<g style="mix-blend-mode:overlay" opacity="0.7">
<ellipse cx="123.058" cy="4.0937" rx="114.131" ry="9.54545" transform="rotate(-180 123.058 4.0937)" fill="url(#paint2_radial_771_238)"/>
</g>
<g style="mix-blend-mode:overlay">
<rect x="14.6074" y="0.00439453" width="215.503" height="1.36364" fill="url(#paint3_linear_771_238)"/>
</g>
<g style="mix-blend-mode:overlay" opacity="0.5">
<rect x="14.6074" y="58.6337" width="215.503" height="1.36364" fill="url(#paint4_linear_771_238)"/>
</g>
<g filter="url(#filter1_dddd_771_238)">
<path d="M37.8229 22.9422C39.3452 22.9422 40.6755 23.2508 41.8138 23.8679C42.9658 24.4714 43.8503 25.3216 44.4675 26.4188C45.0846 27.5159 45.3932 28.7708 45.3932 30.1834C45.3932 31.5822 45.0778 32.8302 44.4469 33.9274C43.8298 35.0245 42.9452 35.8885 41.7932 36.5194C40.6549 37.1365 39.3315 37.4451 37.8229 37.4451H32.0835V22.9422H37.8229ZM37.5143 33.8862C38.6938 33.8862 39.6195 33.5639 40.2915 32.9194C40.9635 32.2748 41.2995 31.3628 41.2995 30.1834C41.2995 28.9902 40.9635 28.0714 40.2915 27.4268C39.6195 26.7685 38.6938 26.4394 37.5143 26.4394H36.1155V33.8862H37.5143ZM54.1638 37.5891C52.8061 37.5891 51.5581 37.2736 50.4198 36.6428C49.2816 35.9982 48.3764 35.1136 47.7044 33.9891C47.0461 32.8508 46.717 31.5685 46.717 30.1422C46.717 28.7159 47.0461 27.4405 47.7044 26.3159C48.3764 25.1776 49.2816 24.2931 50.4198 23.6622C51.5581 23.0314 52.8061 22.7159 54.1638 22.7159C55.5353 22.7159 56.7833 23.0314 57.9078 23.6622C59.0461 24.2931 59.9444 25.1776 60.6027 26.3159C61.261 27.4405 61.5901 28.7159 61.5901 30.1422C61.5901 31.5685 61.261 32.8508 60.6027 33.9891C59.9444 35.1136 59.0461 35.9982 57.9078 36.6428C56.7696 37.2736 55.5216 37.5891 54.1638 37.5891ZM54.1638 33.8451C55.1924 33.8451 56.0016 33.5091 56.5913 32.8371C57.1947 32.1651 57.4964 31.2668 57.4964 30.1422C57.4964 28.9902 57.1947 28.0851 56.5913 27.4268C56.0016 26.7548 55.1924 26.4188 54.1638 26.4188C53.1216 26.4188 52.3056 26.7548 51.7158 27.4268C51.1261 28.0851 50.8313 28.9902 50.8313 30.1422C50.8313 31.2805 51.1261 32.1856 51.7158 32.8576C52.3056 33.5159 53.1216 33.8451 54.1638 33.8451ZM83.8301 22.9422L80.2712 37.4451H75.3135L73.3181 28.5582L71.2815 37.4451H66.3238L62.8061 22.9422H67.1672L68.8541 32.8576L71.1375 22.9422H75.5604L77.7821 32.7754L79.469 22.9422H83.8301ZM98.9742 37.4451H94.9422L89.5731 29.3399V37.4451H85.5411V22.9422H89.5731L94.9422 31.1502V22.9422H98.9742V37.4451ZM105.303 34.3594H109.808V37.4451H101.271V22.9422H105.303V34.3594ZM118.329 37.5891C116.971 37.5891 115.723 37.2736 114.585 36.6428C113.447 35.9982 112.542 35.1136 111.87 33.9891C111.211 32.8508 110.882 31.5685 110.882 30.1422C110.882 28.7159 111.211 27.4405 111.87 26.3159C112.542 25.1776 113.447 24.2931 114.585 23.6622C115.723 23.0314 116.971 22.7159 118.329 22.7159C119.7 22.7159 120.948 23.0314 122.073 23.6622C123.211 24.2931 124.11 25.1776 124.768 26.3159C125.426 27.4405 125.755 28.7159 125.755 30.1422C125.755 31.5685 125.426 32.8508 124.768 33.9891C124.11 35.1136 123.211 35.9982 122.073 36.6428C120.935 37.2736 119.687 37.5891 118.329 37.5891ZM118.329 33.8451C119.358 33.8451 120.167 33.5091 120.756 32.8371C121.36 32.1651 121.662 31.2668 121.662 30.1422C121.662 28.9902 121.36 28.0851 120.756 27.4268C120.167 26.7548 119.358 26.4188 118.329 26.4188C117.287 26.4188 116.471 26.7548 115.881 27.4268C115.291 28.0851 114.996 28.9902 114.996 30.1422C114.996 31.2805 115.291 32.1856 115.881 32.8576C116.471 33.5159 117.287 33.8451 118.329 33.8451ZM136.743 35.0794H131.6L130.818 37.4451H126.58L131.867 22.9422H136.516L141.783 37.4451H137.524L136.743 35.0794ZM135.735 31.9936L134.171 27.3034L132.628 31.9936H135.735ZM148.836 22.9422C150.359 22.9422 151.689 23.2508 152.827 23.8679C153.979 24.4714 154.864 25.3216 155.481 26.4188C156.098 27.5159 156.407 28.7708 156.407 30.1834C156.407 31.5822 156.091 32.8302 155.46 33.9274C154.843 35.0245 153.959 35.8885 152.807 36.5194C151.668 37.1365 150.345 37.4451 148.836 37.4451H143.097V22.9422H148.836ZM148.528 33.8862C149.707 33.8862 150.633 33.5639 151.305 32.9194C151.977 32.2748 152.313 31.3628 152.313 30.1834C152.313 28.9902 151.977 28.0714 151.305 27.4268C150.633 26.7685 149.707 26.4394 148.528 26.4394H147.129V33.8862H148.528ZM175.595 37.4451H171.563L166.194 29.3399V37.4451H162.162V22.9422H166.194L171.563 31.1502V22.9422H175.595V37.4451ZM184.845 37.5891C183.487 37.5891 182.239 37.2736 181.101 36.6428C179.962 35.9982 179.057 35.1136 178.385 33.9891C177.727 32.8508 177.398 31.5685 177.398 30.1422C177.398 28.7159 177.727 27.4405 178.385 26.3159C179.057 25.1776 179.962 24.2931 181.101 23.6622C182.239 23.0314 183.487 22.7159 184.845 22.7159C186.216 22.7159 187.464 23.0314 188.589 23.6622C189.727 24.2931 190.625 25.1776 191.284 26.3159C191.942 27.4405 192.271 28.7159 192.271 30.1422C192.271 31.5685 191.942 32.8508 191.284 33.9891C190.625 35.1136 189.727 35.9982 188.589 36.6428C187.45 37.2736 186.202 37.5891 184.845 37.5891ZM184.845 33.8451C185.873 33.8451 186.682 33.5091 187.272 32.8371C187.876 32.1651 188.177 31.2668 188.177 30.1422C188.177 28.9902 187.876 28.0851 187.272 27.4268C186.682 26.7548 185.873 26.4188 184.845 26.4188C183.802 26.4188 182.986 26.7548 182.397 27.4268C181.807 28.0851 181.512 28.9902 181.512 30.1422C181.512 31.2805 181.807 32.1856 182.397 32.8576C182.986 33.5159 183.802 33.8451 184.845 33.8451ZM214.511 22.9422L210.952 37.4451H205.994L203.999 28.5582L201.962 37.4451H197.005L193.487 22.9422H197.848L199.535 32.8576L201.818 22.9422H206.241L208.463 32.7754L210.15 22.9422H214.511Z" fill="#B6F6FF"/>
<path d="M37.8229 22.9422C39.3452 22.9422 40.6755 23.2508 41.8138 23.8679C42.9658 24.4714 43.8503 25.3216 44.4675 26.4188C45.0846 27.5159 45.3932 28.7708 45.3932 30.1834C45.3932 31.5822 45.0778 32.8302 44.4469 33.9274C43.8298 35.0245 42.9452 35.8885 41.7932 36.5194C40.6549 37.1365 39.3315 37.4451 37.8229 37.4451H32.0835V22.9422H37.8229ZM37.5143 33.8862C38.6938 33.8862 39.6195 33.5639 40.2915 32.9194C40.9635 32.2748 41.2995 31.3628 41.2995 30.1834C41.2995 28.9902 40.9635 28.0714 40.2915 27.4268C39.6195 26.7685 38.6938 26.4394 37.5143 26.4394H36.1155V33.8862H37.5143ZM54.1638 37.5891C52.8061 37.5891 51.5581 37.2736 50.4198 36.6428C49.2816 35.9982 48.3764 35.1136 47.7044 33.9891C47.0461 32.8508 46.717 31.5685 46.717 30.1422C46.717 28.7159 47.0461 27.4405 47.7044 26.3159C48.3764 25.1776 49.2816 24.2931 50.4198 23.6622C51.5581 23.0314 52.8061 22.7159 54.1638 22.7159C55.5353 22.7159 56.7833 23.0314 57.9078 23.6622C59.0461 24.2931 59.9444 25.1776 60.6027 26.3159C61.261 27.4405 61.5901 28.7159 61.5901 30.1422C61.5901 31.5685 61.261 32.8508 60.6027 33.9891C59.9444 35.1136 59.0461 35.9982 57.9078 36.6428C56.7696 37.2736 55.5216 37.5891 54.1638 37.5891ZM54.1638 33.8451C55.1924 33.8451 56.0016 33.5091 56.5913 32.8371C57.1947 32.1651 57.4964 31.2668 57.4964 30.1422C57.4964 28.9902 57.1947 28.0851 56.5913 27.4268C56.0016 26.7548 55.1924 26.4188 54.1638 26.4188C53.1216 26.4188 52.3056 26.7548 51.7158 27.4268C51.1261 28.0851 50.8313 28.9902 50.8313 30.1422C50.8313 31.2805 51.1261 32.1856 51.7158 32.8576C52.3056 33.5159 53.1216 33.8451 54.1638 33.8451ZM83.8301 22.9422L80.2712 37.4451H75.3135L73.3181 28.5582L71.2815 37.4451H66.3238L62.8061 22.9422H67.1672L68.8541 32.8576L71.1375 22.9422H75.5604L77.7821 32.7754L79.469 22.9422H83.8301ZM98.9742 37.4451H94.9422L89.5731 29.3399V37.4451H85.5411V22.9422H89.5731L94.9422 31.1502V22.9422H98.9742V37.4451ZM105.303 34.3594H109.808V37.4451H101.271V22.9422H105.303V34.3594ZM118.329 37.5891C116.971 37.5891 115.723 37.2736 114.585 36.6428C113.447 35.9982 112.542 35.1136 111.87 33.9891C111.211 32.8508 110.882 31.5685 110.882 30.1422C110.882 28.7159 111.211 27.4405 111.87 26.3159C112.542 25.1776 113.447 24.2931 114.585 23.6622C115.723 23.0314 116.971 22.7159 118.329 22.7159C119.7 22.7159 120.948 23.0314 122.073 23.6622C123.211 24.2931 124.11 25.1776 124.768 26.3159C125.426 27.4405 125.755 28.7159 125.755 30.1422C125.755 31.5685 125.426 32.8508 124.768 33.9891C124.11 35.1136 123.211 35.9982 122.073 36.6428C120.935 37.2736 119.687 37.5891 118.329 37.5891ZM118.329 33.8451C119.358 33.8451 120.167 33.5091 120.756 32.8371C121.36 32.1651 121.662 31.2668 121.662 30.1422C121.662 28.9902 121.36 28.0851 120.756 27.4268C120.167 26.7548 119.358 26.4188 118.329 26.4188C117.287 26.4188 116.471 26.7548 115.881 27.4268C115.291 28.0851 114.996 28.9902 114.996 30.1422C114.996 31.2805 115.291 32.1856 115.881 32.8576C116.471 33.5159 117.287 33.8451 118.329 33.8451ZM136.743 35.0794H131.6L130.818 37.4451H126.58L131.867 22.9422H136.516L141.783 37.4451H137.524L136.743 35.0794ZM135.735 31.9936L134.171 27.3034L132.628 31.9936H135.735ZM148.836 22.9422C150.359 22.9422 151.689 23.2508 152.827 23.8679C153.979 24.4714 154.864 25.3216 155.481 26.4188C156.098 27.5159 156.407 28.7708 156.407 30.1834C156.407 31.5822 156.091 32.8302 155.46 33.9274C154.843 35.0245 153.959 35.8885 152.807 36.5194C151.668 37.1365 150.345 37.4451 148.836 37.4451H143.097V22.9422H148.836ZM148.528 33.8862C149.707 33.8862 150.633 33.5639 151.305 32.9194C151.977 32.2748 152.313 31.3628 152.313 30.1834C152.313 28.9902 151.977 28.0714 151.305 27.4268C150.633 26.7685 149.707 26.4394 148.528 26.4394H147.129V33.8862H148.528ZM175.595 37.4451H171.563L166.194 29.3399V37.4451H162.162V22.9422H166.194L171.563 31.1502V22.9422H175.595V37.4451ZM184.845 37.5891C183.487 37.5891 182.239 37.2736 181.101 36.6428C179.962 35.9982 179.057 35.1136 178.385 33.9891C177.727 32.8508 177.398 31.5685 177.398 30.1422C177.398 28.7159 177.727 27.4405 178.385 26.3159C179.057 25.1776 179.962 24.2931 181.101 23.6622C182.239 23.0314 183.487 22.7159 184.845 22.7159C186.216 22.7159 187.464 23.0314 188.589 23.6622C189.727 24.2931 190.625 25.1776 191.284 26.3159C191.942 27.4405 192.271 28.7159 192.271 30.1422C192.271 31.5685 191.942 32.8508 191.284 33.9891C190.625 35.1136 189.727 35.9982 188.589 36.6428C187.45 37.2736 186.202 37.5891 184.845 37.5891ZM184.845 33.8451C185.873 33.8451 186.682 33.5091 187.272 32.8371C187.876 32.1651 188.177 31.2668 188.177 30.1422C188.177 28.9902 187.876 28.0851 187.272 27.4268C186.682 26.7548 185.873 26.4188 184.845 26.4188C183.802 26.4188 182.986 26.7548 182.397 27.4268C181.807 28.0851 181.512 28.9902 181.512 30.1422C181.512 31.2805 181.807 32.1856 182.397 32.8576C182.986 33.5159 183.802 33.8451 184.845 33.8451ZM214.511 22.9422L210.952 37.4451H205.994L203.999 28.5582L201.962 37.4451H197.005L193.487 22.9422H197.848L199.535 32.8576L201.818 22.9422H206.241L208.463 32.7754L210.15 22.9422H214.511Z" fill="url(#paint5_linear_771_238)"/>
</g>
</g>
<defs>
<filter id="filter0_ddd_771_238" x="-13.7163" y="-12.7253" width="273.431" height="88.2881" filterUnits="userSpaceOnUse" color-interpolation-filters="sRGB">
<feFlood flood-opacity="0" result="BackgroundImageFix"/>
<feColorMatrix in="SourceAlpha" type="matrix" values="0 0 0 0 0 0 0 0 0 0 0 0 0 0 0 0 0 0 127 0" result="hardAlpha"/>
<feOffset dy="1.41441"/>
<feGaussianBlur stdDeviation="7.07203"/>
<feColorMatrix type="matrix" values="0 0 0 0 0 0 0 0 0 0 0 0 0 0 0 0 0 0 0.2 0"/>
<feBlend mode="normal" in2="BackgroundImageFix" result="effect1_dropShadow_771_238"/>
<feColorMatrix in="SourceAlpha" type="matrix" values="0 0 0 0 0 0 0 0 0 0 0 0 0 0 0 0 0 0 127 0" result="hardAlpha"/>
<feOffset dy="5.65762"/>
<feGaussianBlur stdDeviation="3.53601"/>
<feColorMatrix type="matrix" values="0 0 0 0 0 0 0 0 0 0 0 0 0 0 0 0 0 0 0.12 0"/>
<feBlend mode="normal" in2="effect1_dropShadow_771_238" result="effect2_dropShadow_771_238"/>
<feColorMatrix in="SourceAlpha" type="matrix" values="0 0 0 0 0 0 0 0 0 0 0 0 0 0 0 0 0 0 127 0" result="hardAlpha"/>
<feOffset dy="2.82881"/>
<feGaussianBlur stdDeviation="2.82881"/>
<feColorMatrix type="matrix" values="0 0 0 0 0 0 0 0 0 0 0 0 0 0 0 0 0 0 0.14 0"/>
<feBlend mode="normal" in2="effect2_dropShadow_771_238" result="effect3_dropShadow_771_238"/>
<feBlend mode="normal" in="SourceGraphic" in2="effect3_dropShadow_771_238" result="shape"/>
</filter>
<filter id="filter1_dddd_771_238" x="29.2552" y="18.4727" width="190.914" height="23.3596" filterUnits="userSpaceOnUse" color-interpolation-filters="sRGB">
<feFlood flood-opacity="0" result="BackgroundImageFix"/>
<feColorMatrix in="SourceAlpha" type="matrix" values="0 0 0 0 0 0 0 0 0 0 0 0 0 0 0 0 0 0 127 0" result="hardAlpha"/>
<feOffset dy="1.41441"/>
<feGaussianBlur stdDeviation="1.41441"/>
<feColorMatrix type="matrix" values="0 0 0 0 0 0 0 0 0 0 0 0 0 0 0 0 0 0 0.2 0"/>
<feBlend mode="overlay" in2="BackgroundImageFix" result="effect1_dropShadow_771_238"/>
<feColorMatrix in="SourceAlpha" type="matrix" values="0 0 0 0 0 0 0 0 0 0 0 0 0 0 0 0 0 0 127 0" result="hardAlpha"/>
<feOffset dy="1.41441"/>
<feGaussianBlur stdDeviation="0.707203"/>
<feColorMatrix type="matrix" values="0 0 0 0 0 0 0 0 0 0 0 0 0 0 0 0 0 0 0.22 0"/>
<feBlend mode="overlay" in2="effect1_dropShadow_771_238" result="effect2_dropShadow_771_238"/>
<feColorMatrix in="SourceAlpha" type="matrix" values="0 0 0 0 0 0 0 0 0 0 0 0 0 0 0 0 0 0 127 0" result="hardAlpha"/>
<feOffset dy="1.41441"/>
<feGaussianBlur stdDeviation="1.41441"/>
<feColorMatrix type="matrix" values="0 0 0 0 0 0 0 0 0 0 0 0 0 0 0 0 0 0 0.24 0"/>
<feBlend mode="overlay" in2="effect2_dropShadow_771_238" result="effect3_dropShadow_771_238"/>
<feColorMatrix in="SourceAlpha" type="matrix" values="0 0 0 0 0 0 0 0 0 0 0 0 0 0 0 0 0 0 127 0" result="hardAlpha"/>
<feOffset dx="1.41441"/>
<feGaussianBlur stdDeviation="2.12161"/>
<feColorMatrix type="matrix" values="0 0 0 0 0 0 0 0 0 0 0 0 0 0 0 0 0 0 0.35 0"/>
<feBlend mode="normal" in2="effect3_dropShadow_771_238" result="effect4_dropShadow_771_238"/>
<feBlend mode="normal" in="SourceGraphic" in2="effect4_dropShadow_771_238" result="shape"/>
</filter>
<linearGradient id="paint0_linear_771_238" x1="122.999" y1="0.00439453" x2="122.999" y2="60.0044" gradientUnits="userSpaceOnUse">
<stop stop-color="white"/>
<stop offset="1" stop-color="white" stop-opacity="0"/>
</linearGradient>
<radialGradient id="paint1_radial_771_238" cx="0" cy="0" r="1" gradientUnits="userSpaceOnUse" gradientTransform="translate(123 54.7989) rotate(90) scale(24.4 114.692)">
<stop stop-color="white"/>
<stop offset="1" stop-color="white" stop-opacity="0"/>
</radialGradient>
<radialGradient id="paint2_radial_771_238" cx="0" cy="0" r="1" gradientUnits="userSpaceOnUse" gradientTransform="translate(123.058 4.0937) rotate(90) scale(9.54545 114.131)">
<stop stop-color="white"/>
<stop offset="1" stop-color="white" stop-opacity="0"/>
</radialGradient>
<linearGradient id="paint3_linear_771_238" x1="228.91" y1="0.00439453" x2="14.0657" y2="0.00439453" gradientUnits="userSpaceOnUse">
<stop stop-color="white" stop-opacity="0"/>
<stop offset="0.492063" stop-color="white"/>
<stop offset="1" stop-color="white" stop-opacity="0"/>
</linearGradient>
<linearGradient id="paint4_linear_771_238" x1="228.91" y1="58.6337" x2="14.0657" y2="58.6337" gradientUnits="userSpaceOnUse">
<stop stop-color="white" stop-opacity="0"/>
<stop offset="0.492063" stop-color="white"/>
<stop offset="1" stop-color="white" stop-opacity="0"/>
</linearGradient>
<linearGradient id="paint5_linear_771_238" x1="123.001" y1="16.4451" x2="123.001" y2="44.4446" gradientUnits="userSpaceOnUse">
<stop stop-color="white"/>
<stop offset="1" stop-color="white" stop-opacity="0"/>
</linearGradient>
<clipPath id="clip0_771_238">
<rect x="0.427734" width="245.143" height="60" rx="10.2857" fill="white"/>
</clipPath>
</defs>
</svg>
