<svg width="31" height="31" viewBox="0 0 31 31" fill="none" xmlns="http://www.w3.org/2000/svg">
<path fill-rule="evenodd" clip-rule="evenodd" d="M15.735 0.34082C11.5992 0.34082 11.0802 0.358904 9.45576 0.432827C7.83455 0.507066 6.72793 0.763733 5.75964 1.14032C4.75804 1.52929 3.90841 2.0496 3.06195 2.89638C2.21486 3.74284 1.69455 4.59247 1.30431 5.59375C0.92677 6.56236 0.669787 7.66929 0.596816 9.28987C0.524163 10.9143 0.505127 11.4336 0.505127 15.5695C0.505127 19.7053 0.523528 20.2228 0.597133 21.8472C0.67169 23.4684 0.928356 24.575 1.30463 25.5433C1.69391 26.5449 2.21423 27.3945 3.061 28.241C3.90714 29.0881 4.75677 29.6096 5.75774 29.9986C6.72666 30.3752 7.8336 30.6319 9.4545 30.7061C11.0789 30.78 11.5976 30.7981 15.7331 30.7981C19.8693 30.7981 20.3868 30.78 22.0112 30.7061C23.6324 30.6319 24.7402 30.3752 25.7092 29.9986C26.7105 29.6096 27.5588 29.0881 28.405 28.241C29.2521 27.3945 29.7724 26.5449 30.1626 25.5436C30.537 24.575 30.794 23.4681 30.8701 21.8475C30.9431 20.2231 30.9621 19.7053 30.9621 15.5695C30.9621 11.4336 30.9431 10.9146 30.8701 9.29019C30.794 7.66897 30.537 6.56236 30.1626 5.59407C29.7724 4.59247 29.2521 3.74284 28.405 2.89638C27.5579 2.04928 26.7108 1.52897 25.7082 1.14032C24.7374 0.763733 23.6301 0.507066 22.0089 0.432827C20.3845 0.358904 19.8674 0.34082 15.7303 0.34082H15.735ZM14.3694 3.08506C14.7748 3.08442 15.2272 3.08506 15.7355 3.08506C19.8015 3.08506 20.2835 3.09965 21.8891 3.17262C23.3739 3.24051 24.1798 3.48862 24.7166 3.69706C25.4273 3.97308 25.9339 4.30303 26.4666 4.83603C26.9996 5.36904 27.3296 5.87666 27.6062 6.58733C27.8147 7.1235 28.0631 7.92935 28.1307 9.41415C28.2036 11.0195 28.2195 11.5017 28.2195 15.5659C28.2195 19.63 28.2036 20.1123 28.1307 21.7176C28.0628 23.2024 27.8147 24.0083 27.6062 24.5444C27.3302 25.2551 26.9996 25.7611 26.4666 26.2938C25.9336 26.8268 25.4276 27.1568 24.7166 27.4328C24.1804 27.6422 23.3739 27.8897 21.8891 27.9576C20.2838 28.0305 19.8015 28.0464 15.7355 28.0464C11.6691 28.0464 11.1872 28.0305 9.58185 27.9576C8.09706 27.889 7.29121 27.6409 6.75408 27.4325C6.04341 27.1565 5.53579 26.8265 5.00279 26.2935C4.46978 25.7605 4.13983 25.2542 3.86318 24.5432C3.65473 24.007 3.40632 23.2011 3.33874 21.7164C3.26577 20.111 3.25117 19.6288 3.25117 15.5621C3.25117 11.4954 3.26577 11.0157 3.33874 9.41034C3.40663 7.92554 3.65473 7.1197 3.86318 6.58289C4.13919 5.87222 4.46978 5.36459 5.00279 4.83159C5.53579 4.29859 6.04341 3.96863 6.75408 3.69198C7.29089 3.48259 8.09706 3.23512 9.58185 3.16691C10.9867 3.10346 11.5311 3.08442 14.3694 3.08125V3.08506ZM23.8671 5.61367C22.8582 5.61367 22.0396 6.43126 22.0396 7.44047C22.0396 8.44937 22.8582 9.26791 23.8671 9.26791C24.8759 9.26791 25.6945 8.44937 25.6945 7.44047C25.6945 6.43158 24.8759 5.61304 23.8671 5.61304V5.61367ZM15.7371 7.74904C11.4182 7.74904 7.91652 11.2507 7.91652 15.5696C7.91652 19.8885 11.4182 23.3885 15.7371 23.3885C20.056 23.3885 23.5563 19.8885 23.5563 15.5696C23.5563 11.2507 20.056 7.74904 15.7371 7.74904ZM15.7329 10.4936C18.5363 10.4936 20.8091 12.7662 20.8091 15.5698C20.8091 18.3732 18.5363 20.6461 15.7329 20.6461C12.9293 20.6461 10.6567 18.3732 10.6567 15.5698C10.6567 12.7662 12.9293 10.4936 15.7329 10.4936Z" fill="url(#paint0_linear_85_3780)"/>
<defs>
<linearGradient id="paint0_linear_85_3780" x1="15.7575" y1="0.726356" x2="15.7575" y2="30.7981" gradientUnits="userSpaceOnUse">
<stop stop-color="#FAF51C"/>
<stop offset="1" stop-color="#F67408"/>
</linearGradient>
</defs>
</svg>
