<svg width="38" height="31" viewBox="0 0 38 31" fill="none" xmlns="http://www.w3.org/2000/svg">
<path fill-rule="evenodd" clip-rule="evenodd" d="M18.8441 8.44294L18.9239 9.7603L17.5924 9.59899C12.7457 8.98064 8.51149 6.88361 4.9164 3.36168L3.1588 1.61415L2.70609 2.90463C1.7474 5.78132 2.35989 8.81933 4.35717 10.8626C5.42238 11.9918 5.18271 12.1531 3.34521 11.4809C2.70609 11.2659 2.14685 11.1045 2.09359 11.1852C1.90718 11.3734 2.54631 13.8199 3.05228 14.7878C3.74467 16.132 5.15608 17.4494 6.70063 18.2291L8.00552 18.8474L6.46096 18.8743C4.96966 18.8743 4.9164 18.9012 5.07618 19.4658C5.60879 21.2133 7.71259 23.0684 10.0561 23.8749L11.7071 24.4395L10.2691 25.2998C8.13867 26.5365 5.63542 27.2355 3.13217 27.2893C1.93381 27.3162 0.948486 27.4237 0.948486 27.5044C0.948486 27.7732 4.19738 29.2788 6.08814 29.8703C11.7604 31.6178 18.4979 30.865 23.5576 27.8808C27.1527 25.7569 30.7478 21.5359 32.4255 17.4494C33.3309 15.2717 34.2364 11.2927 34.2364 9.38391C34.2364 8.1472 34.3163 7.98589 35.8076 6.50722C36.6864 5.6469 37.5119 4.70593 37.6717 4.43708C37.938 3.92626 37.9114 3.92626 36.5532 4.38331C34.2896 5.18986 33.9701 5.08232 35.0885 3.87249C35.9141 3.01217 36.8994 1.45284 36.8994 0.995799C36.8994 0.915144 36.5 1.04957 36.0472 1.29153C35.5679 1.56038 34.5027 1.96366 33.7038 2.20562L32.2657 2.66267L30.9608 1.77546C30.2418 1.29153 29.2299 0.753834 28.6973 0.592524C27.3391 0.216135 25.262 0.269904 24.037 0.700064C20.7082 1.90989 18.6044 5.02855 18.8441 8.44294Z" fill="url(#paint0_linear_85_3787)"/>
<defs>
<linearGradient id="paint0_linear_85_3787" x1="19.4053" y1="0.726356" x2="19.4053" y2="30.7981" gradientUnits="userSpaceOnUse">
<stop stop-color="#FAF51C"/>
<stop offset="1" stop-color="#F67408"/>
</linearGradient>
</defs>
</svg>
