<svg width="45" height="31" viewBox="0 0 45 31" fill="none" xmlns="http://www.w3.org/2000/svg">
<path d="M43.6379 4.84102C43.1277 2.93451 41.6293 1.43627 39.7228 0.925917C36.2708 2.77162e-07 22.422 0 22.422 0C22.422 0 8.57342 2.77162e-07 5.12128 0.925917C3.21478 1.43627 1.71654 2.93451 1.20619 4.84102C0.280274 8.29315 0.280273 15.5 0.280273 15.5C0.280273 15.5 0.280274 22.7069 1.20619 26.159C1.71654 28.0655 3.21478 29.5638 5.12128 30.074C8.57342 31 22.422 31 22.422 31C22.422 31 36.2708 31 39.7228 30.074C41.6293 29.5638 43.1277 28.0655 43.6379 26.159C44.5639 22.7069 44.5639 15.5 44.5639 15.5C44.5639 15.5 44.5602 8.29315 43.6379 4.84102Z" fill="url(#paint0_linear_85_3795)"/>
<path d="M17.9895 22.1425L29.4942 15.5007L17.9895 8.85889V22.1425Z" fill="#080612"/>
<defs>
<linearGradient id="paint0_linear_85_3795" x1="22.4568" y1="0.392405" x2="22.4568" y2="31" gradientUnits="userSpaceOnUse">
<stop stop-color="#FAF51C"/>
<stop offset="1" stop-color="#F67408"/>
</linearGradient>
</defs>
</svg>
