<svg width="31" height="31" viewBox="0 0 31 31" fill="none" xmlns="http://www.w3.org/2000/svg">
<g clip-path="url(#clip0_85_3789)">
<rect width="30.2337" height="30.2337" transform="translate(0.76416 0.766113)" fill="url(#paint0_linear_85_3789)"/>
<path fill-rule="evenodd" clip-rule="evenodd" d="M4.12517 31.0008H27.6403C29.4956 31.0008 30.9996 29.4968 30.9996 27.6415V4.12639C30.9996 2.2711 29.4956 0.76709 27.6403 0.76709H4.12517C2.26988 0.76709 0.765869 2.2711 0.765869 4.12639V27.6415C0.765869 29.4968 2.26988 31.0008 4.12517 31.0008Z" fill="url(#paint1_linear_85_3789)"/>
<path fill-rule="evenodd" clip-rule="evenodd" d="M26.8015 26.8027H22.315V19.1612C22.315 17.0661 21.5189 15.8953 19.8607 15.8953C18.0567 15.8953 17.1142 17.1137 17.1142 19.1612V26.8027H12.7904V12.2458H17.1142V14.2066C17.1142 14.2066 18.4142 11.801 21.5033 11.801C24.591 11.801 26.8015 13.6865 26.8015 17.5862V26.8027ZM7.63223 10.3396C6.15948 10.3396 4.96606 9.13687 4.96606 7.65347C4.96606 6.17006 6.15948 4.96729 7.63223 4.96729C9.10499 4.96729 10.2977 6.17006 10.2977 7.65347C10.2977 9.13687 9.10499 10.3396 7.63223 10.3396ZM5.39965 26.8027H9.90818V12.2458H5.39965V26.8027Z" fill="#132327"/>
</g>
<defs>
<linearGradient id="paint0_linear_85_3789" x1="15.1406" y1="0.382705" x2="15.1406" y2="30.2337" gradientUnits="userSpaceOnUse">
<stop stop-color="#FAF51C"/>
<stop offset="1" stop-color="#F67408"/>
</linearGradient>
<linearGradient id="paint1_linear_85_3789" x1="15.9064" y1="1.14979" x2="15.9064" y2="31.0008" gradientUnits="userSpaceOnUse">
<stop stop-color="#FAF51C"/>
<stop offset="1" stop-color="#F67408"/>
</linearGradient>
<clipPath id="clip0_85_3789">
<rect width="30.2337" height="30.2337" fill="white" transform="translate(0.76416 0.766113)"/>
</clipPath>
</defs>
</svg>
