<svg width="279" height="123" viewBox="0 0 279 123" fill="none" xmlns="http://www.w3.org/2000/svg">
<g filter="url(#filter0_d_85_3804)">
<path d="M242.896 21.856H36.429C32.4628 21.856 29.2476 25.0712 29.2476 29.0374V79.3077C29.2476 83.2739 32.4628 86.4892 36.429 86.4892H242.896C246.862 86.4892 250.078 83.2739 250.078 79.3077V29.0374C250.078 25.0712 246.862 21.856 242.896 21.856Z" fill="black"/>
</g>
<path d="M78.0478 53.0024C78.0839 51.5273 78.5033 50.0871 79.2646 48.8231C80.0258 47.5592 81.1028 46.515 82.3898 45.7934C81.5251 44.6559 80.415 43.7282 79.1419 43.0794C77.8689 42.4305 76.466 42.0774 75.0374 42.0463C71.9447 41.7413 68.9448 43.7911 67.3679 43.7911C65.7605 43.7911 63.3341 42.0769 60.7202 42.1271C59.06 42.1614 57.4354 42.6133 55.9961 43.4412C54.5567 44.2692 53.3492 45.4462 52.4849 46.864C48.9223 52.6776 51.5789 61.2225 54.9921 65.9272C56.7 68.2285 58.6949 70.7999 61.3057 70.7083C63.8603 70.6077 64.8135 69.1725 67.9001 69.1725C70.9502 69.1725 71.8515 70.7083 74.5158 70.6503C77.2609 70.6077 78.9858 68.3384 80.6328 66.0157C81.8521 64.3906 82.797 62.5765 83.4298 60.646C81.8711 60.0583 80.5249 59.0158 79.5662 57.6536C78.6073 56.2915 78.08 54.6726 78.0525 53.0069L78.0478 53.0024Z" fill="#B6F6FF"/>
<path d="M78.0478 53.0024C78.0839 51.5273 78.5033 50.0871 79.2646 48.8231C80.0258 47.5592 81.1028 46.515 82.3898 45.7934C81.5251 44.6559 80.415 43.7282 79.1419 43.0794C77.8689 42.4305 76.466 42.0774 75.0374 42.0463C71.9447 41.7413 68.9448 43.7911 67.3679 43.7911C65.7605 43.7911 63.3341 42.0769 60.7202 42.1271C59.06 42.1614 57.4354 42.6133 55.9961 43.4412C54.5567 44.2692 53.3492 45.4462 52.4849 46.864C48.9223 52.6776 51.5789 61.2225 54.9921 65.9272C56.7 68.2285 58.6949 70.7999 61.3057 70.7083C63.8603 70.6077 64.8135 69.1725 67.9001 69.1725C70.9502 69.1725 71.8515 70.7083 74.5158 70.6503C77.2609 70.6077 78.9858 68.3384 80.6328 66.0157C81.8521 64.3906 82.797 62.5765 83.4298 60.646C81.8711 60.0583 80.5249 59.0158 79.5662 57.6536C78.6073 56.2915 78.08 54.6726 78.0525 53.0069L78.0478 53.0024Z" fill="url(#paint0_linear_85_3804)"/>
<path d="M73.0128 38.9556C73.7466 38.1364 74.3065 37.177 74.6593 36.1354C75.0121 35.0938 75.1504 33.9915 75.0656 32.895C72.8112 33.1065 70.7106 34.131 69.156 35.7774C68.4222 36.553 67.8563 37.4717 67.4937 38.4759C67.1312 39.4801 66.9795 40.5484 67.0484 41.6138C68.1763 41.6323 69.2944 41.4039 70.3248 40.9446C71.355 40.4856 72.2726 39.8066 73.0128 38.9556Z" fill="#B6F6FF"/>
<path d="M73.0128 38.9556C73.7466 38.1364 74.3065 37.177 74.6593 36.1354C75.0121 35.0938 75.1504 33.9915 75.0656 32.895C72.8112 33.1065 70.7106 34.131 69.156 35.7774C68.4222 36.553 67.8563 37.4717 67.4937 38.4759C67.1312 39.4801 66.9795 40.5484 67.0484 41.6138C68.1763 41.6323 69.2944 41.4039 70.3248 40.9446C71.355 40.4856 72.2726 39.8066 73.0128 38.9556Z" fill="url(#paint1_linear_85_3804)"/>
<path d="M108.704 65.1095H100.316L98.3031 70.7141H94.7542L102.697 49.9731H106.387L114.33 70.7141H110.717L108.704 65.1095ZM101.187 62.5168H107.829L104.551 53.4213H104.473L101.187 62.5168Z" fill="#B6F6FF"/>
<path d="M108.704 65.1095H100.316L98.3031 70.7141H94.7542L102.697 49.9731H106.387L114.33 70.7141H110.717L108.704 65.1095ZM101.187 62.5168H107.829L104.551 53.4213H104.473L101.187 62.5168Z" fill="url(#paint2_linear_85_3804)"/>
<path d="M131.479 63.1547C131.479 67.8519 128.812 70.87 124.786 70.87C123.784 70.9305 122.784 70.7159 121.895 70.25C121.005 69.7839 120.26 69.0839 119.739 68.2256H119.663V75.7137H116.372V55.5966H119.56V58.1099H119.621C120.163 57.256 120.92 56.5596 121.817 56.0907C122.713 55.6217 123.717 55.3968 124.728 55.4379C128.797 55.4379 131.479 58.4713 131.479 63.1547ZM128.095 63.1547C128.095 60.094 126.418 58.0825 123.857 58.0825C121.342 58.0825 119.65 60.1367 119.65 63.1547C119.65 66.2049 121.341 68.2408 123.857 68.2408C126.418 68.2408 128.095 66.2429 128.095 63.1547Z" fill="#B6F6FF"/>
<path d="M131.479 63.1547C131.479 67.8519 128.812 70.87 124.786 70.87C123.784 70.9305 122.784 70.7159 121.895 70.25C121.005 69.7839 120.26 69.0839 119.739 68.2256H119.663V75.7137H116.372V55.5966H119.56V58.1099H119.621C120.163 57.256 120.92 56.5596 121.817 56.0907C122.713 55.6217 123.717 55.3968 124.728 55.4379C128.797 55.4379 131.479 58.4713 131.479 63.1547ZM128.095 63.1547C128.095 60.094 126.418 58.0825 123.857 58.0825C121.342 58.0825 119.65 60.1367 119.65 63.1547C119.65 66.2049 121.341 68.2408 123.857 68.2408C126.418 68.2408 128.095 66.2429 128.095 63.1547Z" fill="url(#paint3_linear_85_3804)"/>
<path d="M149.13 63.1547C149.13 67.8519 146.461 70.87 142.436 70.87C141.434 70.9312 140.433 70.7172 139.544 70.2515C138.654 69.7857 137.908 69.0857 137.387 68.2272H137.31V75.7151H134.031V55.5966H137.219V58.1099H137.28C137.822 57.256 138.58 56.5596 139.476 56.0907C140.373 55.6217 141.377 55.3968 142.387 55.4379C146.45 55.4379 149.13 58.4713 149.13 63.1547ZM145.746 63.1547C145.746 60.094 144.068 58.0825 141.507 58.0825C138.993 58.0825 137.3 60.1367 137.3 63.1547C137.3 66.2049 138.991 68.2408 141.507 68.2408C144.071 68.2408 145.749 66.2429 145.749 63.1547H145.746Z" fill="#B6F6FF"/>
<path d="M149.13 63.1547C149.13 67.8519 146.461 70.87 142.436 70.87C141.434 70.9312 140.433 70.7172 139.544 70.2515C138.654 69.7857 137.908 69.0857 137.387 68.2272H137.31V75.7151H134.031V55.5966H137.219V58.1099H137.28C137.822 57.256 138.58 56.5596 139.476 56.0907C140.373 55.6217 141.377 55.3968 142.387 55.4379C146.45 55.4379 149.13 58.4713 149.13 63.1547ZM145.746 63.1547C145.746 60.094 144.068 58.0825 141.507 58.0825C138.993 58.0825 137.3 60.1367 137.3 63.1547C137.3 66.2049 138.991 68.2408 141.507 68.2408C144.071 68.2408 145.749 66.2429 145.749 63.1547H145.746Z" fill="url(#paint4_linear_85_3804)"/>
<path d="M160.8 64.9381C161.044 66.9939 163.163 68.3451 166.058 68.3451C168.834 68.3451 170.83 66.9954 170.83 65.1426C170.83 63.5336 169.625 62.5696 166.775 61.9093L163.924 61.2628C159.885 60.3477 158.01 58.5618 158.01 55.6734C158.01 52.0956 161.318 49.6387 166.014 49.6387C170.664 49.6387 173.851 52.0956 173.958 55.6734H170.633C170.435 53.6039 168.62 52.3549 165.968 52.3549C163.316 52.3549 161.501 53.6192 161.501 55.4584C161.501 56.9239 162.66 57.7871 165.495 58.4475L167.919 59.0087C172.433 60.0152 174.306 61.7233 174.306 64.7566C174.306 68.6363 171.03 71.0658 165.816 71.0658C160.935 71.0658 157.643 68.6929 157.428 64.9427L160.8 64.9381Z" fill="#B6F6FF"/>
<path d="M160.8 64.9381C161.044 66.9939 163.163 68.3451 166.058 68.3451C168.834 68.3451 170.83 66.9954 170.83 65.1426C170.83 63.5336 169.625 62.5696 166.775 61.9093L163.924 61.2628C159.885 60.3477 158.01 58.5618 158.01 55.6734C158.01 52.0956 161.318 49.6387 166.014 49.6387C170.664 49.6387 173.851 52.0956 173.958 55.6734H170.633C170.435 53.6039 168.62 52.3549 165.968 52.3549C163.316 52.3549 161.501 53.6192 161.501 55.4584C161.501 56.9239 162.66 57.7871 165.495 58.4475L167.919 59.0087C172.433 60.0152 174.306 61.7233 174.306 64.7566C174.306 68.6363 171.03 71.0658 165.816 71.0658C160.935 71.0658 157.643 68.6929 157.428 64.9427L160.8 64.9381Z" fill="url(#paint5_linear_85_3804)"/>
<path d="M181.413 52.0188V55.5966H184.463V58.0536H181.413V66.388C181.413 67.6827 182.023 68.2866 183.365 68.2866C183.727 68.2805 184.088 68.2566 184.448 68.215V70.6551C183.844 70.7614 183.231 70.8093 182.618 70.7983C179.371 70.7983 178.104 69.6486 178.104 66.7173V58.0536H175.773V55.5966H178.105V52.0188H181.413Z" fill="#B6F6FF"/>
<path d="M181.413 52.0188V55.5966H184.463V58.0536H181.413V66.388C181.413 67.6827 182.023 68.2866 183.365 68.2866C183.727 68.2805 184.088 68.2566 184.448 68.215V70.6551C183.844 70.7614 183.231 70.8093 182.618 70.7983C179.371 70.7983 178.104 69.6486 178.104 66.7173V58.0536H175.773V55.5966H178.105V52.0188H181.413Z" fill="url(#paint6_linear_85_3804)"/>
<path d="M186.228 63.1548C186.213 62.1465 186.4 61.1456 186.776 60.2102C187.152 59.2746 187.71 58.4231 188.418 57.7051C189.125 56.9872 189.969 56.4171 190.899 56.0279C191.829 55.6388 192.827 55.4385 193.836 55.4385C194.844 55.4385 195.842 55.6388 196.772 56.0279C197.702 56.4171 198.546 56.9872 199.254 57.7051C199.961 58.4231 200.519 59.2746 200.895 60.2102C201.271 61.1456 201.458 62.1465 201.443 63.1548C201.443 67.9236 198.5 70.9005 193.835 70.9005C189.17 70.9005 186.228 67.9236 186.228 63.1548ZM198.088 63.1548C198.088 59.8926 196.502 57.9694 193.835 57.9694C191.167 57.9694 189.581 59.9093 189.581 63.1548C189.581 66.4306 191.167 68.34 193.835 68.34C196.502 68.34 198.088 66.429 198.088 63.1548Z" fill="#B6F6FF"/>
<path d="M186.228 63.1548C186.213 62.1465 186.4 61.1456 186.776 60.2102C187.152 59.2746 187.71 58.4231 188.418 57.7051C189.125 56.9872 189.969 56.4171 190.899 56.0279C191.829 55.6388 192.827 55.4385 193.836 55.4385C194.844 55.4385 195.842 55.6388 196.772 56.0279C197.702 56.4171 198.546 56.9872 199.254 57.7051C199.961 58.4231 200.519 59.2746 200.895 60.2102C201.271 61.1456 201.458 62.1465 201.443 63.1548C201.443 67.9236 198.5 70.9005 193.835 70.9005C189.17 70.9005 186.228 67.9236 186.228 63.1548ZM198.088 63.1548C198.088 59.8926 196.502 57.9694 193.835 57.9694C191.167 57.9694 189.581 59.9093 189.581 63.1548C189.581 66.4306 191.167 68.34 193.835 68.34C196.502 68.34 198.088 66.429 198.088 63.1548Z" fill="url(#paint7_linear_85_3804)"/>
<path d="M204.16 55.5982H207.3V58.1711H207.376C207.616 57.3469 208.128 56.6284 208.83 56.1325C209.53 55.6364 210.377 55.3922 211.234 55.4396C211.614 55.4384 211.991 55.4772 212.363 55.5556V58.4532C211.882 58.3149 211.383 58.2517 210.883 58.2655C210.411 58.2451 209.939 58.3232 209.497 58.4945C209.056 58.6659 208.655 58.9271 208.32 59.2614C207.997 59.583 207.752 59.9735 207.602 60.4035C207.452 60.8335 207.401 61.2918 207.454 61.7442V70.7116H204.16V55.5982Z" fill="#B6F6FF"/>
<path d="M204.16 55.5982H207.3V58.1711H207.376C207.616 57.3469 208.128 56.6284 208.83 56.1325C209.53 55.6364 210.377 55.3922 211.234 55.4396C211.614 55.4384 211.991 55.4772 212.363 55.5556V58.4532C211.882 58.3149 211.383 58.2517 210.883 58.2655C210.411 58.2451 209.939 58.3232 209.497 58.4945C209.056 58.6659 208.655 58.9271 208.32 59.2614C207.997 59.583 207.752 59.9735 207.602 60.4035C207.452 60.8335 207.401 61.2918 207.454 61.7442V70.7116H204.16V55.5982Z" fill="url(#paint8_linear_85_3804)"/>
<path d="M227.533 66.2712C227.091 69.0163 224.255 70.8984 220.628 70.8984C215.962 70.8984 213.066 67.9519 213.066 63.2243C213.066 58.4966 215.978 55.4067 220.49 55.4067C224.928 55.4067 227.718 58.28 227.718 62.8627V63.9302H216.4V64.1179C216.35 64.6798 216.425 65.2459 216.621 65.775C216.816 66.3041 217.129 66.7831 217.531 67.1772C217.951 67.5863 218.45 67.9055 218.998 68.1152C219.545 68.3249 220.129 68.421 220.714 68.3973C221.477 68.4752 222.244 68.312 222.908 67.9307C223.574 67.5492 224.102 66.9689 224.42 66.2712H227.533ZM216.4 61.7602H224.42C224.447 61.2546 224.364 60.749 224.177 60.2783C223.993 59.8074 223.707 59.3822 223.341 59.0318C222.962 58.6675 222.513 58.3818 222.023 58.1915C221.533 58.0012 221.01 57.91 220.484 57.9231C219.411 57.9104 218.375 58.31 217.587 59.0395C217.211 59.3865 216.912 59.8072 216.705 60.2754C216.5 60.7435 216.395 61.2489 216.393 61.7602H216.4Z" fill="#B6F6FF"/>
<path d="M227.533 66.2712C227.091 69.0163 224.255 70.8984 220.628 70.8984C215.962 70.8984 213.066 67.9519 213.066 63.2243C213.066 58.4966 215.978 55.4067 220.49 55.4067C224.928 55.4067 227.718 58.28 227.718 62.8627V63.9302H216.4V64.1179C216.35 64.6798 216.425 65.2459 216.621 65.775C216.816 66.3041 217.129 66.7831 217.531 67.1772C217.951 67.5863 218.45 67.9055 218.998 68.1152C219.545 68.3249 220.129 68.421 220.714 68.3973C221.477 68.4752 222.244 68.312 222.908 67.9307C223.574 67.5492 224.102 66.9689 224.42 66.2712H227.533ZM216.4 61.7602H224.42C224.447 61.2546 224.364 60.749 224.177 60.2783C223.993 59.8074 223.707 59.3822 223.341 59.0318C222.962 58.6675 222.513 58.3818 222.023 58.1915C221.533 58.0012 221.01 57.91 220.484 57.9231C219.411 57.9104 218.375 58.31 217.587 59.0395C217.211 59.3865 216.912 59.8072 216.705 60.2754C216.5 60.7435 216.395 61.2489 216.393 61.7602H216.4Z" fill="url(#paint9_linear_85_3804)"/>
<path d="M100.773 33.5261C101.449 33.4765 102.128 33.5649 102.77 33.7859C103.411 34.0069 104.001 34.3559 104.503 34.8117C104.968 35.2317 105.324 35.7584 105.541 36.3466C105.757 36.9348 105.828 37.5668 105.746 38.1882C105.746 41.1864 103.916 42.9159 100.773 42.9159H96.96V33.5261H100.773ZM98.5964 41.583H100.59C101.072 41.6133 101.556 41.5446 102.012 41.3808C102.467 41.2173 102.884 40.9621 103.237 40.6313C103.564 40.326 103.811 39.9456 103.957 39.5229C104.103 39.1003 104.144 38.6484 104.076 38.2065C104.14 37.7662 104.096 37.317 103.948 36.8975C103.799 36.478 103.551 36.1008 103.225 35.7984C102.873 35.4705 102.457 35.2175 102.004 35.0547C101.551 34.8919 101.07 34.8227 100.59 34.8513H98.5964V41.583Z" fill="#B6F6FF"/>
<path d="M100.773 33.5261C101.449 33.4765 102.128 33.5649 102.77 33.7859C103.411 34.0069 104.001 34.3559 104.503 34.8117C104.968 35.2317 105.324 35.7584 105.541 36.3466C105.757 36.9348 105.828 37.5668 105.746 38.1882C105.746 41.1864 103.916 42.9159 100.773 42.9159H96.96V33.5261H100.773ZM98.5964 41.583H100.59C101.072 41.6133 101.556 41.5446 102.012 41.3808C102.467 41.2173 102.884 40.9621 103.237 40.6313C103.564 40.326 103.811 39.9456 103.957 39.5229C104.103 39.1003 104.144 38.6484 104.076 38.2065C104.14 37.7662 104.096 37.317 103.948 36.8975C103.799 36.478 103.551 36.1008 103.225 35.7984C102.873 35.4705 102.457 35.2175 102.004 35.0547C101.551 34.8919 101.07 34.8227 100.59 34.8513H98.5964V41.583Z" fill="url(#paint10_linear_85_3804)"/>
<path d="M107.6 39.3633C107.546 38.7187 107.686 38.0728 108.001 37.508C108.316 36.9432 108.792 36.4853 109.369 36.1926C109.981 35.8617 110.666 35.6885 111.362 35.6885C112.057 35.6885 112.742 35.8617 113.354 36.1926C113.931 36.4853 114.407 36.9432 114.722 37.508C115.037 38.0728 115.177 38.7187 115.123 39.3633C115.178 40.0085 115.04 40.6555 114.725 41.2214C114.411 41.7873 113.934 42.2466 113.357 42.5399C112.744 42.8717 112.059 43.0453 111.362 43.0453C110.666 43.0453 109.98 42.8717 109.367 42.5399C108.79 42.2468 108.314 41.788 107.999 41.2223C107.684 40.6566 107.545 40.0099 107.6 39.3648V39.3633ZM113.505 39.3633C113.505 37.8275 112.729 36.9232 111.37 36.9232C110.011 36.9232 109.235 37.8214 109.235 39.3633C109.235 40.9051 109.997 41.8033 111.37 41.8033C112.743 41.8033 113.505 40.9067 113.505 39.3633Z" fill="#B6F6FF"/>
<path d="M107.6 39.3633C107.546 38.7187 107.686 38.0728 108.001 37.508C108.316 36.9432 108.792 36.4853 109.369 36.1926C109.981 35.8617 110.666 35.6885 111.362 35.6885C112.057 35.6885 112.742 35.8617 113.354 36.1926C113.931 36.4853 114.407 36.9432 114.722 37.508C115.037 38.0728 115.177 38.7187 115.123 39.3633C115.178 40.0085 115.04 40.6555 114.725 41.2214C114.411 41.7873 113.934 42.2466 113.357 42.5399C112.744 42.8717 112.059 43.0453 111.362 43.0453C110.666 43.0453 109.98 42.8717 109.367 42.5399C108.79 42.2468 108.314 41.788 107.999 41.2223C107.684 40.6566 107.545 40.0099 107.6 39.3648V39.3633ZM113.505 39.3633C113.505 37.8275 112.729 36.9232 111.37 36.9232C110.011 36.9232 109.235 37.8214 109.235 39.3633C109.235 40.9051 109.997 41.8033 111.37 41.8033C112.743 41.8033 113.505 40.9067 113.505 39.3633Z" fill="url(#paint11_linear_85_3804)"/>
<path d="M125.125 42.9111H123.492L121.843 37.6953H121.718L120.076 42.9111H118.459L116.26 35.8286H117.857L119.286 41.2335H119.403L121.043 35.8286H122.552L124.192 41.2335H124.317L125.738 35.8286H127.312L125.125 42.9111Z" fill="#B6F6FF"/>
<path d="M125.125 42.9111H123.492L121.843 37.6953H121.718L120.076 42.9111H118.459L116.26 35.8286H117.857L119.286 41.2335H119.403L121.043 35.8286H122.552L124.192 41.2335H124.317L125.738 35.8286H127.312L125.125 42.9111Z" fill="url(#paint12_linear_85_3804)"/>
<path d="M129.164 35.8324H130.68V36.9579H130.798C131.027 36.5372 131.375 36.1932 131.798 35.969C132.221 35.7447 132.701 35.65 133.178 35.6967C133.558 35.6676 133.941 35.7171 134.301 35.8423C134.661 35.9675 134.992 36.1655 135.272 36.4241C135.532 36.662 135.729 36.9607 135.846 37.2933C135.962 37.6259 135.995 37.9823 135.94 38.3304V42.9148H134.363V38.6766C134.397 38.4435 134.375 38.2058 134.3 37.9825C134.225 37.7593 134.099 37.5567 133.932 37.3911C133.764 37.2254 133.56 37.1014 133.336 37.0288C133.112 36.9562 132.874 36.9371 132.641 36.9731C132.383 36.9602 132.125 36.9986 131.882 37.086C131.639 37.1734 131.415 37.3082 131.225 37.4825C131.048 37.6432 130.911 37.8434 130.826 38.0668C130.742 38.2902 130.711 38.5306 130.737 38.7681V42.9118H129.164V35.8324Z" fill="#B6F6FF"/>
<path d="M129.164 35.8324H130.68V36.9579H130.798C131.027 36.5372 131.375 36.1932 131.798 35.969C132.221 35.7447 132.701 35.65 133.178 35.6967C133.558 35.6676 133.941 35.7171 134.301 35.8423C134.661 35.9675 134.992 36.1655 135.272 36.4241C135.532 36.662 135.729 36.9607 135.846 37.2933C135.962 37.6259 135.995 37.9823 135.94 38.3304V42.9148H134.363V38.6766C134.397 38.4435 134.375 38.2058 134.3 37.9825C134.225 37.7593 134.099 37.5567 133.932 37.3911C133.764 37.2254 133.56 37.1014 133.336 37.0288C133.112 36.9562 132.874 36.9371 132.641 36.9731C132.383 36.9602 132.125 36.9986 131.882 37.086C131.639 37.1734 131.415 37.3082 131.225 37.4825C131.048 37.6432 130.911 37.8434 130.826 38.0668C130.742 38.2902 130.711 38.5306 130.737 38.7681V42.9118H129.164V35.8324Z" fill="url(#paint13_linear_85_3804)"/>
<path d="M138.45 33.064H140.024V42.9114H138.45V33.064Z" fill="#B6F6FF"/>
<path d="M138.45 33.064H140.024V42.9114H138.45V33.064Z" fill="url(#paint14_linear_85_3804)"/>
<path d="M142.21 39.3647C142.156 38.7202 142.296 38.0743 142.611 37.5095C142.926 36.9447 143.402 36.4867 143.979 36.1941C144.591 35.8632 145.276 35.6899 145.972 35.6899C146.667 35.6899 147.352 35.8632 147.964 36.1941C148.541 36.4867 149.017 36.9447 149.332 37.5095C149.647 38.0743 149.787 38.7202 149.733 39.3647C149.788 40.0096 149.65 40.6563 149.335 41.222C149.02 41.7876 148.544 42.2465 147.967 42.5398C147.355 42.8716 146.669 43.0452 145.972 43.0452C145.276 43.0452 144.59 42.8716 143.978 42.5398C143.4 42.2468 142.924 41.7879 142.609 41.2222C142.294 40.6567 142.155 40.0098 142.21 39.3647ZM148.115 39.3647C148.115 37.829 147.339 36.9246 145.98 36.9246C144.621 36.9246 143.845 37.8229 143.845 39.3647C143.845 40.9066 144.607 41.8048 145.98 41.8048C147.353 41.8048 148.115 40.908 148.115 39.3647Z" fill="#B6F6FF"/>
<path d="M142.21 39.3647C142.156 38.7202 142.296 38.0743 142.611 37.5095C142.926 36.9447 143.402 36.4867 143.979 36.1941C144.591 35.8632 145.276 35.6899 145.972 35.6899C146.667 35.6899 147.352 35.8632 147.964 36.1941C148.541 36.4867 149.017 36.9447 149.332 37.5095C149.647 38.0743 149.787 38.7202 149.733 39.3647C149.788 40.0096 149.65 40.6563 149.335 41.222C149.02 41.7876 148.544 42.2465 147.967 42.5398C147.355 42.8716 146.669 43.0452 145.972 43.0452C145.276 43.0452 144.59 42.8716 143.978 42.5398C143.4 42.2468 142.924 41.7879 142.609 41.2222C142.294 40.6567 142.155 40.0098 142.21 39.3647ZM148.115 39.3647C148.115 37.829 147.339 36.9246 145.98 36.9246C144.621 36.9246 143.845 37.8229 143.845 39.3647C143.845 40.9066 144.607 41.8048 145.98 41.8048C147.353 41.8048 148.115 40.908 148.115 39.3647Z" fill="url(#paint15_linear_85_3804)"/>
<path d="M151.393 40.9071C151.393 39.6321 152.46 38.897 154.359 38.7933L156.52 38.682V38.072C156.52 37.3247 155.963 36.9022 154.886 36.9022C154.008 36.9022 153.398 37.189 153.224 37.6892H151.699C151.859 36.4691 153.149 35.6929 154.958 35.6929C156.957 35.6929 158.086 36.5774 158.086 38.0735V42.9125H156.578V41.9166H156.453C156.176 42.2852 155.813 42.5796 155.394 42.7737C154.976 42.9676 154.517 43.0552 154.057 43.0285C153.391 43.0946 152.726 42.903 152.198 42.4931C151.954 42.3064 151.756 42.0669 151.617 41.7929C151.479 41.5188 151.404 41.2171 151.399 40.9101L151.393 40.9071ZM156.52 40.297V39.7053L154.572 39.8166C153.474 39.8823 152.976 40.2132 152.976 40.8385C152.976 41.4636 153.598 41.8464 154.455 41.8464C154.954 41.8944 155.453 41.757 155.858 41.4606C156.045 41.3256 156.202 41.1516 156.316 40.9509C156.431 40.7502 156.5 40.5272 156.521 40.297H156.52Z" fill="#B6F6FF"/>
<path d="M151.393 40.9071C151.393 39.6321 152.46 38.897 154.359 38.7933L156.52 38.682V38.072C156.52 37.3247 155.963 36.9022 154.886 36.9022C154.008 36.9022 153.398 37.189 153.224 37.6892H151.699C151.859 36.4691 153.149 35.6929 154.958 35.6929C156.957 35.6929 158.086 36.5774 158.086 38.0735V42.9125H156.578V41.9166H156.453C156.176 42.2852 155.813 42.5796 155.394 42.7737C154.976 42.9676 154.517 43.0552 154.057 43.0285C153.391 43.0946 152.726 42.903 152.198 42.4931C151.954 42.3064 151.756 42.0669 151.617 41.7929C151.479 41.5188 151.404 41.2171 151.399 40.9101L151.393 40.9071ZM156.52 40.297V39.7053L154.572 39.8166C153.474 39.8823 152.976 40.2132 152.976 40.8385C152.976 41.4636 153.598 41.8464 154.455 41.8464C154.954 41.8944 155.453 41.757 155.858 41.4606C156.045 41.3256 156.202 41.1516 156.316 40.9509C156.431 40.7502 156.5 40.5272 156.521 40.297H156.52Z" fill="url(#paint16_linear_85_3804)"/>
<path d="M160.155 39.367C160.099 38.9024 160.142 38.431 160.284 37.9848C160.425 37.5386 160.661 37.128 160.975 36.7809C161.289 36.4338 161.674 36.1582 162.104 35.9729C162.534 35.7876 162.998 35.6969 163.466 35.7069C163.947 35.6781 164.426 35.7781 164.856 35.9966C165.284 36.2151 165.647 36.5442 165.907 36.9498H166.03V33.064H167.604V42.9114H166.096V41.792H165.971C165.693 42.1948 165.317 42.5202 164.879 42.7363C164.44 42.9527 163.953 43.0528 163.465 43.0272C162.997 43.0379 162.532 42.9478 162.102 42.7627C161.671 42.5776 161.286 42.302 160.972 41.9548C160.658 41.6074 160.423 41.1964 160.282 40.7499C160.141 40.3034 160.098 39.8318 160.155 39.367ZM161.781 39.367C161.781 40.8691 162.579 41.7736 163.916 41.7736C164.222 41.781 164.527 41.7219 164.808 41.6002C165.089 41.4787 165.34 41.2975 165.544 41.0691C165.748 40.841 165.901 40.5711 165.99 40.2783C166.08 39.9855 166.105 39.6766 166.064 39.3731C166.101 39.07 166.074 38.7623 165.983 38.4707C165.892 38.1791 165.739 37.9105 165.535 37.6829C165.331 37.4554 165.081 37.2742 164.801 37.1517C164.522 37.0292 164.219 36.9681 163.913 36.9727C163.607 36.9647 163.304 37.0235 163.023 37.1452C162.742 37.2668 162.491 37.4482 162.288 37.6768C162.085 37.9054 161.934 38.1757 161.846 38.4686C161.758 38.7617 161.735 39.0703 161.778 39.3731L161.781 39.367Z" fill="#B6F6FF"/>
<path d="M160.155 39.367C160.099 38.9024 160.142 38.431 160.284 37.9848C160.425 37.5386 160.661 37.128 160.975 36.7809C161.289 36.4338 161.674 36.1582 162.104 35.9729C162.534 35.7876 162.998 35.6969 163.466 35.7069C163.947 35.6781 164.426 35.7781 164.856 35.9966C165.284 36.2151 165.647 36.5442 165.907 36.9498H166.03V33.064H167.604V42.9114H166.096V41.792H165.971C165.693 42.1948 165.317 42.5202 164.879 42.7363C164.44 42.9527 163.953 43.0528 163.465 43.0272C162.997 43.0379 162.532 42.9478 162.102 42.7627C161.671 42.5776 161.286 42.302 160.972 41.9548C160.658 41.6074 160.423 41.1964 160.282 40.7499C160.141 40.3034 160.098 39.8318 160.155 39.367ZM161.781 39.367C161.781 40.8691 162.579 41.7736 163.916 41.7736C164.222 41.781 164.527 41.7219 164.808 41.6002C165.089 41.4787 165.34 41.2975 165.544 41.0691C165.748 40.841 165.901 40.5711 165.99 40.2783C166.08 39.9855 166.105 39.6766 166.064 39.3731C166.101 39.07 166.074 38.7623 165.983 38.4707C165.892 38.1791 165.739 37.9105 165.535 37.6829C165.331 37.4554 165.081 37.2742 164.801 37.1517C164.522 37.0292 164.219 36.9681 163.913 36.9727C163.607 36.9647 163.304 37.0235 163.023 37.1452C162.742 37.2668 162.491 37.4482 162.288 37.6768C162.085 37.9054 161.934 38.1757 161.846 38.4686C161.758 38.7617 161.735 39.0703 161.778 39.3731L161.781 39.367Z" fill="url(#paint17_linear_85_3804)"/>
<path d="M174.12 39.3633C174.066 38.7187 174.206 38.0728 174.521 37.508C174.836 36.9432 175.312 36.4853 175.889 36.1926C176.501 35.8617 177.186 35.6885 177.882 35.6885C178.577 35.6885 179.262 35.8617 179.874 36.1926C180.451 36.4853 180.927 36.9432 181.243 37.508C181.558 38.0728 181.697 38.7187 181.643 39.3633C181.699 40.0087 181.56 40.6557 181.245 41.2218C180.93 41.7877 180.453 42.2468 179.876 42.5399C179.263 42.8717 178.577 43.0453 177.881 43.0453C177.184 43.0453 176.499 42.8717 175.886 42.5399C175.309 42.2466 174.832 41.7873 174.518 41.2214C174.203 40.6555 174.065 40.0085 174.12 39.3633ZM180.025 39.3633C180.025 37.8275 179.249 36.9232 177.89 36.9232C176.531 36.9232 175.755 37.8214 175.755 39.3633C175.755 40.9051 176.517 41.8033 177.89 41.8033C179.263 41.8033 180.019 40.9051 180.019 39.3633H180.025Z" fill="#B6F6FF"/>
<path d="M174.12 39.3633C174.066 38.7187 174.206 38.0728 174.521 37.508C174.836 36.9432 175.312 36.4853 175.889 36.1926C176.501 35.8617 177.186 35.6885 177.882 35.6885C178.577 35.6885 179.262 35.8617 179.874 36.1926C180.451 36.4853 180.927 36.9432 181.243 37.508C181.558 38.0728 181.697 38.7187 181.643 39.3633C181.699 40.0087 181.56 40.6557 181.245 41.2218C180.93 41.7877 180.453 42.2468 179.876 42.5399C179.263 42.8717 178.577 43.0453 177.881 43.0453C177.184 43.0453 176.499 42.8717 175.886 42.5399C175.309 42.2466 174.832 41.7873 174.518 41.2214C174.203 40.6555 174.065 40.0085 174.12 39.3633ZM180.025 39.3633C180.025 37.8275 179.249 36.9232 177.89 36.9232C176.531 36.9232 175.755 37.8214 175.755 39.3633C175.755 40.9051 176.517 41.8033 177.89 41.8033C179.263 41.8033 180.019 40.9051 180.019 39.3633H180.025Z" fill="url(#paint18_linear_85_3804)"/>
<path d="M183.754 35.8324H185.27V36.9579H185.388C185.617 36.5372 185.965 36.1932 186.388 35.969C186.812 35.7447 187.291 35.65 187.768 35.6967C188.149 35.6676 188.531 35.7171 188.891 35.8423C189.251 35.9675 189.582 36.1655 189.862 36.4241C190.122 36.662 190.319 36.9607 190.436 37.2933C190.553 37.6259 190.585 37.9823 190.53 38.3304V42.9148H188.955V38.6766C188.988 38.4435 188.967 38.2058 188.892 37.9825C188.817 37.7593 188.691 37.5567 188.523 37.3911C188.356 37.2254 188.152 37.1014 187.928 37.0288C187.704 36.9562 187.466 36.9371 187.233 36.9731C186.975 36.9602 186.717 36.9986 186.474 37.086C186.23 37.1734 186.007 37.3082 185.816 37.4825C185.639 37.6432 185.503 37.8434 185.418 38.0668C185.333 38.2902 185.303 38.5306 185.328 38.7681V42.9118H183.754V35.8324Z" fill="#B6F6FF"/>
<path d="M183.754 35.8324H185.27V36.9579H185.388C185.617 36.5372 185.965 36.1932 186.388 35.969C186.812 35.7447 187.291 35.65 187.768 35.6967C188.149 35.6676 188.531 35.7171 188.891 35.8423C189.251 35.9675 189.582 36.1655 189.862 36.4241C190.122 36.662 190.319 36.9607 190.436 37.2933C190.553 37.6259 190.585 37.9823 190.53 38.3304V42.9148H188.955V38.6766C188.988 38.4435 188.967 38.2058 188.892 37.9825C188.817 37.7593 188.691 37.5567 188.523 37.3911C188.356 37.2254 188.152 37.1014 187.928 37.0288C187.704 36.9562 187.466 36.9371 187.233 36.9731C186.975 36.9602 186.717 36.9986 186.474 37.086C186.23 37.1734 186.007 37.3082 185.816 37.4825C185.639 37.6432 185.503 37.8434 185.418 38.0668C185.333 38.2902 185.303 38.5306 185.328 38.7681V42.9118H183.754V35.8324Z" fill="url(#paint19_linear_85_3804)"/>
<path d="M199.425 34.063V35.858H201.153V37.0353H199.425V40.6772C199.425 41.4184 199.77 41.7448 200.554 41.7448C200.754 41.7442 200.955 41.7336 201.154 41.7126V42.8764C200.872 42.9213 200.586 42.9453 200.299 42.948C198.548 42.948 197.851 42.4004 197.851 41.0356V37.0353H196.585V35.858H197.851V34.063H199.425Z" fill="#B6F6FF"/>
<path d="M199.425 34.063V35.858H201.153V37.0353H199.425V40.6772C199.425 41.4184 199.77 41.7448 200.554 41.7448C200.754 41.7442 200.955 41.7336 201.154 41.7126V42.8764C200.872 42.9213 200.586 42.9453 200.299 42.948C198.548 42.948 197.851 42.4004 197.851 41.0356V37.0353H196.585V35.858H197.851V34.063H199.425Z" fill="url(#paint20_linear_85_3804)"/>
<path d="M203.297 33.064H204.857V36.9727H204.982C205.221 36.5482 205.578 36.2024 206.01 35.9771C206.442 35.7518 206.93 35.6569 207.415 35.7038C207.792 35.6819 208.171 35.7367 208.527 35.8649C208.883 35.993 209.21 36.1919 209.486 36.4496C209.745 36.6875 209.939 36.984 210.057 37.3138C210.174 37.6437 210.21 37.997 210.161 38.3437V42.9189H208.592V38.6838C208.622 38.4525 208.599 38.2172 208.524 37.9962C208.449 37.7752 208.325 37.5743 208.16 37.4091C207.995 37.2438 207.795 37.1185 207.574 37.0428C207.353 36.9672 207.118 36.9432 206.887 36.9727C206.621 36.9511 206.354 36.9827 206.101 37.0657C205.848 37.1487 205.613 37.2815 205.412 37.4561C205.225 37.6168 205.079 37.8198 204.986 38.0481C204.894 38.2765 204.857 38.5237 204.878 38.7692V42.9053H203.297V33.064Z" fill="#B6F6FF"/>
<path d="M203.297 33.064H204.857V36.9727H204.982C205.221 36.5482 205.578 36.2024 206.01 35.9771C206.442 35.7518 206.93 35.6569 207.415 35.7038C207.792 35.6819 208.171 35.7367 208.527 35.8649C208.883 35.993 209.21 36.1919 209.486 36.4496C209.745 36.6875 209.939 36.984 210.057 37.3138C210.174 37.6437 210.21 37.997 210.161 38.3437V42.9189H208.592V38.6838C208.622 38.4525 208.599 38.2172 208.524 37.9962C208.449 37.7752 208.325 37.5743 208.16 37.4091C207.995 37.2438 207.795 37.1185 207.574 37.0428C207.353 36.9672 207.118 36.9432 206.887 36.9727C206.621 36.9511 206.354 36.9827 206.101 37.0657C205.848 37.1487 205.613 37.2815 205.412 37.4561C205.225 37.6168 205.079 37.8198 204.986 38.0481C204.894 38.2765 204.857 38.5237 204.878 38.7692V42.9053H203.297V33.064Z" fill="url(#paint21_linear_85_3804)"/>
<path d="M219.348 40.9993C219.084 41.6783 218.601 42.2494 217.974 42.6211C217.348 42.9927 216.615 43.1433 215.892 43.0489C215.378 43.0665 214.867 42.9812 214.387 42.7977C213.906 42.6144 213.468 42.3369 213.096 41.9814C212.752 41.6517 212.491 41.2444 212.337 40.7932C212.183 40.3422 212.138 39.8605 212.208 39.3888C212.141 38.9173 212.188 38.4368 212.342 37.9863C212.495 37.5358 212.753 37.1281 213.095 36.7962C213.464 36.4368 213.901 36.1541 214.38 35.9643C214.858 35.7745 215.369 35.6815 215.885 35.6905C216.364 35.6486 216.845 35.7122 217.298 35.877C217.748 36.0418 218.159 36.3037 218.499 36.6441C218.838 36.9846 219.098 37.3953 219.262 37.8475C219.425 38.2996 219.486 38.782 219.443 39.2607V39.7487H213.809V39.8264C213.786 40.0917 213.825 40.3587 213.922 40.6068C214.017 40.8551 214.17 41.0779 214.366 41.2586C214.791 41.653 215.353 41.8674 215.933 41.8562C216.298 41.9033 216.669 41.8478 217.003 41.6961C217.339 41.5446 217.626 41.3027 217.831 40.9977L219.348 40.9993ZM213.811 38.7117H217.84C217.858 38.4687 217.82 38.225 217.728 37.999C217.637 37.773 217.497 37.5708 217.316 37.4077C216.922 37.0514 216.405 36.8612 215.876 36.877C215.337 36.8666 214.815 37.0556 214.407 37.4077C214.219 37.5691 214.069 37.7692 213.965 37.9943C213.863 38.2194 213.809 38.4641 213.811 38.7117Z" fill="#B6F6FF"/>
<path d="M219.348 40.9993C219.084 41.6783 218.601 42.2494 217.974 42.6211C217.348 42.9927 216.615 43.1433 215.892 43.0489C215.378 43.0665 214.867 42.9812 214.387 42.7977C213.906 42.6144 213.468 42.3369 213.096 41.9814C212.752 41.6517 212.491 41.2444 212.337 40.7932C212.183 40.3422 212.138 39.8605 212.208 39.3888C212.141 38.9173 212.188 38.4368 212.342 37.9863C212.495 37.5358 212.753 37.1281 213.095 36.7962C213.464 36.4368 213.901 36.1541 214.38 35.9643C214.858 35.7745 215.369 35.6815 215.885 35.6905C216.364 35.6486 216.845 35.7122 217.298 35.877C217.748 36.0418 218.159 36.3037 218.499 36.6441C218.838 36.9846 219.098 37.3953 219.262 37.8475C219.425 38.2996 219.486 38.782 219.443 39.2607V39.7487H213.809V39.8264C213.786 40.0917 213.825 40.3587 213.922 40.6068C214.017 40.8551 214.17 41.0779 214.366 41.2586C214.791 41.653 215.353 41.8674 215.933 41.8562C216.298 41.9033 216.669 41.8478 217.003 41.6961C217.339 41.5446 217.626 41.3027 217.831 40.9977L219.348 40.9993ZM213.811 38.7117H217.84C217.858 38.4687 217.82 38.225 217.728 37.999C217.637 37.773 217.497 37.5708 217.316 37.4077C216.922 37.0514 216.405 36.8612 215.876 36.877C215.337 36.8666 214.815 37.0556 214.407 37.4077C214.219 37.5691 214.069 37.7692 213.965 37.9943C213.863 38.2194 213.809 38.4641 213.811 38.7117Z" fill="url(#paint22_linear_85_3804)"/>
<defs>
<filter id="filter0_d_85_3804" x="0.521692" y="0.311557" width="278.282" height="122.085" filterUnits="userSpaceOnUse" color-interpolation-filters="sRGB">
<feFlood flood-opacity="0" result="BackgroundImageFix"/>
<feColorMatrix in="SourceAlpha" type="matrix" values="0 0 0 0 0 0 0 0 0 0 0 0 0 0 0 0 0 0 127 0" result="hardAlpha"/>
<feOffset dy="7.18147"/>
<feGaussianBlur stdDeviation="14.3629"/>
<feColorMatrix type="matrix" values="0 0 0 0 0.337255 0 0 0 0 0.486275 0 0 0 0 0.678431 0 0 0 0.16 0"/>
<feBlend mode="normal" in2="BackgroundImageFix" result="effect1_dropShadow_85_3804"/>
<feBlend mode="normal" in="SourceGraphic" in2="effect1_dropShadow_85_3804" result="shape"/>
</filter>
<linearGradient id="paint0_linear_85_3804" x1="67.1114" y1="42.0154" x2="67.1114" y2="70.7107" gradientUnits="userSpaceOnUse">
<stop stop-color="white"/>
<stop offset="1" stop-color="white" stop-opacity="0"/>
</linearGradient>
<linearGradient id="paint1_linear_85_3804" x1="71.061" y1="32.895" x2="71.061" y2="41.6148" gradientUnits="userSpaceOnUse">
<stop stop-color="white"/>
<stop offset="1" stop-color="white" stop-opacity="0"/>
</linearGradient>
<linearGradient id="paint2_linear_85_3804" x1="104.542" y1="49.9731" x2="104.542" y2="70.7141" gradientUnits="userSpaceOnUse">
<stop stop-color="white"/>
<stop offset="1" stop-color="white" stop-opacity="0"/>
</linearGradient>
<linearGradient id="paint3_linear_85_3804" x1="123.926" y1="55.4331" x2="123.926" y2="75.7137" gradientUnits="userSpaceOnUse">
<stop stop-color="white"/>
<stop offset="1" stop-color="white" stop-opacity="0"/>
</linearGradient>
<linearGradient id="paint4_linear_85_3804" x1="141.581" y1="55.4331" x2="141.581" y2="75.7151" gradientUnits="userSpaceOnUse">
<stop stop-color="white"/>
<stop offset="1" stop-color="white" stop-opacity="0"/>
</linearGradient>
<linearGradient id="paint5_linear_85_3804" x1="165.867" y1="49.6387" x2="165.867" y2="71.0658" gradientUnits="userSpaceOnUse">
<stop stop-color="white"/>
<stop offset="1" stop-color="white" stop-opacity="0"/>
</linearGradient>
<linearGradient id="paint6_linear_85_3804" x1="180.118" y1="52.0188" x2="180.118" y2="70.7999" gradientUnits="userSpaceOnUse">
<stop stop-color="white"/>
<stop offset="1" stop-color="white" stop-opacity="0"/>
</linearGradient>
<linearGradient id="paint7_linear_85_3804" x1="193.836" y1="55.4385" x2="193.836" y2="70.9005" gradientUnits="userSpaceOnUse">
<stop stop-color="white"/>
<stop offset="1" stop-color="white" stop-opacity="0"/>
</linearGradient>
<linearGradient id="paint8_linear_85_3804" x1="208.261" y1="55.4338" x2="208.261" y2="70.7116" gradientUnits="userSpaceOnUse">
<stop stop-color="white"/>
<stop offset="1" stop-color="white" stop-opacity="0"/>
</linearGradient>
<linearGradient id="paint9_linear_85_3804" x1="220.392" y1="55.4067" x2="220.392" y2="70.8984" gradientUnits="userSpaceOnUse">
<stop stop-color="white"/>
<stop offset="1" stop-color="white" stop-opacity="0"/>
</linearGradient>
<linearGradient id="paint10_linear_85_3804" x1="101.369" y1="33.5127" x2="101.369" y2="42.9159" gradientUnits="userSpaceOnUse">
<stop stop-color="white"/>
<stop offset="1" stop-color="white" stop-opacity="0"/>
</linearGradient>
<linearGradient id="paint11_linear_85_3804" x1="111.362" y1="35.6885" x2="111.362" y2="43.0453" gradientUnits="userSpaceOnUse">
<stop stop-color="white"/>
<stop offset="1" stop-color="white" stop-opacity="0"/>
</linearGradient>
<linearGradient id="paint12_linear_85_3804" x1="121.786" y1="35.8286" x2="121.786" y2="42.9111" gradientUnits="userSpaceOnUse">
<stop stop-color="white"/>
<stop offset="1" stop-color="white" stop-opacity="0"/>
</linearGradient>
<linearGradient id="paint13_linear_85_3804" x1="132.565" y1="35.6851" x2="132.565" y2="42.9148" gradientUnits="userSpaceOnUse">
<stop stop-color="white"/>
<stop offset="1" stop-color="white" stop-opacity="0"/>
</linearGradient>
<linearGradient id="paint14_linear_85_3804" x1="139.237" y1="33.064" x2="139.237" y2="42.9114" gradientUnits="userSpaceOnUse">
<stop stop-color="white"/>
<stop offset="1" stop-color="white" stop-opacity="0"/>
</linearGradient>
<linearGradient id="paint15_linear_85_3804" x1="145.972" y1="35.6899" x2="145.972" y2="43.0452" gradientUnits="userSpaceOnUse">
<stop stop-color="white"/>
<stop offset="1" stop-color="white" stop-opacity="0"/>
</linearGradient>
<linearGradient id="paint16_linear_85_3804" x1="154.739" y1="35.6929" x2="154.739" y2="43.0413" gradientUnits="userSpaceOnUse">
<stop stop-color="white"/>
<stop offset="1" stop-color="white" stop-opacity="0"/>
</linearGradient>
<linearGradient id="paint17_linear_85_3804" x1="163.867" y1="33.064" x2="163.867" y2="43.0311" gradientUnits="userSpaceOnUse">
<stop stop-color="white"/>
<stop offset="1" stop-color="white" stop-opacity="0"/>
</linearGradient>
<linearGradient id="paint18_linear_85_3804" x1="177.882" y1="35.6885" x2="177.882" y2="43.0453" gradientUnits="userSpaceOnUse">
<stop stop-color="white"/>
<stop offset="1" stop-color="white" stop-opacity="0"/>
</linearGradient>
<linearGradient id="paint19_linear_85_3804" x1="187.155" y1="35.6851" x2="187.155" y2="42.9148" gradientUnits="userSpaceOnUse">
<stop stop-color="white"/>
<stop offset="1" stop-color="white" stop-opacity="0"/>
</linearGradient>
<linearGradient id="paint20_linear_85_3804" x1="198.87" y1="34.063" x2="198.87" y2="42.948" gradientUnits="userSpaceOnUse">
<stop stop-color="white"/>
<stop offset="1" stop-color="white" stop-opacity="0"/>
</linearGradient>
<linearGradient id="paint21_linear_85_3804" x1="206.74" y1="33.064" x2="206.74" y2="42.9189" gradientUnits="userSpaceOnUse">
<stop stop-color="white"/>
<stop offset="1" stop-color="white" stop-opacity="0"/>
</linearGradient>
<linearGradient id="paint22_linear_85_3804" x1="215.816" y1="35.678" x2="215.816" y2="43.0764" gradientUnits="userSpaceOnUse">
<stop stop-color="white"/>
<stop offset="1" stop-color="white" stop-opacity="0"/>
</linearGradient>
</defs>
</svg>
