<svg width="41" height="31" viewBox="0 0 41 31" fill="none" xmlns="http://www.w3.org/2000/svg">
<path d="M34.398 2.58941C31.8125 1.37973 29.048 0.500592 26.1578 0C25.8029 0.641741 25.3882 1.5049 25.1023 2.19153C22.0299 1.72949 18.9858 1.72949 15.9699 2.19153C15.684 1.5049 15.2599 0.641741 14.9018 0C12.0085 0.500592 9.2408 1.38296 6.65533 2.59582C1.44041 10.4762 0.0267363 18.1609 0.733576 25.7365C4.19238 28.3194 7.54438 29.8885 10.8398 30.9153C11.6535 29.7954 12.3791 28.605 13.0043 27.3504C11.8137 26.898 10.6733 26.3397 9.59581 25.6916C9.88166 25.4798 10.1613 25.2584 10.4314 25.0306C17.0034 28.1045 24.1441 28.1045 30.6376 25.0306C30.9109 25.2584 31.1905 25.4798 31.4732 25.6916C30.3926 26.3429 29.2491 26.9012 28.0585 27.3537C28.6836 28.605 29.4062 29.7987 30.2229 30.9184C33.5215 29.8917 36.8767 28.3227 40.3355 25.7365C41.1648 16.9545 38.9187 9.34036 34.398 2.58941ZM13.8996 21.0776C11.9268 21.0776 10.3089 19.2358 10.3089 16.993C10.3089 14.7501 11.8922 12.9052 13.8996 12.9052C15.9071 12.9052 17.525 14.7469 17.4904 16.993C17.4935 19.2358 15.9071 21.0776 13.8996 21.0776ZM27.1694 21.0776C25.1966 21.0776 23.5786 19.2358 23.5786 16.993C23.5786 14.7501 25.1619 12.9052 27.1694 12.9052C29.1768 12.9052 30.7947 14.7469 30.7602 16.993C30.7602 19.2358 29.1768 21.0776 27.1694 21.0776Z" fill="url(#paint0_linear_85_3798)"/>
<defs>
<linearGradient id="paint0_linear_85_3798" x1="20.5659" y1="0.391372" x2="20.5659" y2="30.9184" gradientUnits="userSpaceOnUse">
<stop stop-color="#FAF51C"/>
<stop offset="1" stop-color="#F67408"/>
</linearGradient>
</defs>
</svg>
