<svg width="183" height="31" viewBox="0 0 183 31" fill="none" xmlns="http://www.w3.org/2000/svg">
<path fill-rule="evenodd" clip-rule="evenodd" d="M15.735 0.34082C11.5992 0.34082 11.0802 0.358904 9.45576 0.432827C7.83455 0.507066 6.72793 0.763733 5.75964 1.14032C4.75804 1.52929 3.90841 2.0496 3.06195 2.89638C2.21486 3.74284 1.69455 4.59247 1.30431 5.59375C0.92677 6.56236 0.669787 7.66929 0.596816 9.28987C0.524163 10.9143 0.505127 11.4336 0.505127 15.5695C0.505127 19.7053 0.523528 20.2228 0.597133 21.8472C0.67169 23.4684 0.928356 24.575 1.30463 25.5433C1.69391 26.5449 2.21423 27.3945 3.061 28.241C3.90714 29.0881 4.75677 29.6096 5.75774 29.9986C6.72666 30.3752 7.8336 30.6319 9.4545 30.7061C11.0789 30.78 11.5976 30.7981 15.7331 30.7981C19.8693 30.7981 20.3868 30.78 22.0112 30.7061C23.6324 30.6319 24.7402 30.3752 25.7092 29.9986C26.7105 29.6096 27.5588 29.0881 28.405 28.241C29.2521 27.3945 29.7724 26.5449 30.1626 25.5436C30.537 24.575 30.794 23.4681 30.8701 21.8475C30.9431 20.2231 30.9621 19.7053 30.9621 15.5695C30.9621 11.4336 30.9431 10.9146 30.8701 9.29019C30.794 7.66897 30.537 6.56236 30.1626 5.59407C29.7724 4.59247 29.2521 3.74284 28.405 2.89638C27.5579 2.04928 26.7108 1.52897 25.7082 1.14032C24.7374 0.763733 23.6301 0.507066 22.0089 0.432827C20.3845 0.358904 19.8674 0.34082 15.7303 0.34082H15.735ZM14.3694 3.08506C14.7748 3.08442 15.2272 3.08506 15.7355 3.08506C19.8015 3.08506 20.2835 3.09965 21.8891 3.17262C23.3739 3.24051 24.1798 3.48862 24.7166 3.69706C25.4273 3.97308 25.9339 4.30303 26.4666 4.83603C26.9996 5.36904 27.3296 5.87666 27.6062 6.58733C27.8147 7.1235 28.0631 7.92935 28.1307 9.41415C28.2036 11.0195 28.2195 11.5017 28.2195 15.5659C28.2195 19.63 28.2036 20.1123 28.1307 21.7176C28.0628 23.2024 27.8147 24.0083 27.6062 24.5444C27.3302 25.2551 26.9996 25.7611 26.4666 26.2938C25.9336 26.8268 25.4276 27.1568 24.7166 27.4328C24.1804 27.6422 23.3739 27.8897 21.8891 27.9576C20.2838 28.0305 19.8015 28.0464 15.7355 28.0464C11.6691 28.0464 11.1872 28.0305 9.58185 27.9576C8.09706 27.889 7.29121 27.6409 6.75408 27.4325C6.04341 27.1565 5.53579 26.8265 5.00279 26.2935C4.46978 25.7605 4.13983 25.2542 3.86318 24.5432C3.65473 24.007 3.40632 23.2011 3.33874 21.7164C3.26577 20.111 3.25117 19.6288 3.25117 15.5621C3.25117 11.4954 3.26577 11.0157 3.33874 9.41034C3.40663 7.92554 3.65473 7.1197 3.86318 6.58289C4.13919 5.87222 4.46978 5.36459 5.00279 4.83159C5.53579 4.29859 6.04341 3.96863 6.75408 3.69198C7.29089 3.48259 8.09706 3.23512 9.58185 3.16691C10.9867 3.10346 11.5311 3.08442 14.3694 3.08125V3.08506ZM23.8671 5.61367C22.8582 5.61367 22.0396 6.43126 22.0396 7.44047C22.0396 8.44937 22.8582 9.26791 23.8671 9.26791C24.8759 9.26791 25.6945 8.44937 25.6945 7.44047C25.6945 6.43158 24.8759 5.61304 23.8671 5.61304V5.61367ZM15.7371 7.74904C11.4182 7.74904 7.91652 11.2507 7.91652 15.5696C7.91652 19.8885 11.4182 23.3885 15.7371 23.3885C20.056 23.3885 23.5563 19.8885 23.5563 15.5696C23.5563 11.2507 20.056 7.74904 15.7371 7.74904ZM15.7329 10.4936C18.5363 10.4936 20.8091 12.7662 20.8091 15.5698C20.8091 18.3732 18.5363 20.6461 15.7329 20.6461C12.9293 20.6461 10.6567 18.3732 10.6567 15.5698C10.6567 12.7662 12.9293 10.4936 15.7329 10.4936Z" fill="url(#paint0_linear_85_3778)"/>
<path fill-rule="evenodd" clip-rule="evenodd" d="M163.844 8.44294L163.924 9.7603L162.592 9.59899C157.746 8.98064 153.511 6.88361 149.916 3.36168L148.159 1.61415L147.706 2.90463C146.747 5.78132 147.36 8.81933 149.357 10.8626C150.422 11.9918 150.183 12.1531 148.345 11.4809C147.706 11.2659 147.147 11.1045 147.094 11.1852C146.907 11.3734 147.546 13.8199 148.052 14.7878C148.745 16.132 150.156 17.4494 151.701 18.2291L153.006 18.8474L151.461 18.8743C149.97 18.8743 149.916 18.9012 150.076 19.4658C150.609 21.2133 152.713 23.0684 155.056 23.8749L156.707 24.4395L155.269 25.2998C153.139 26.5365 150.635 27.2355 148.132 27.2893C146.934 27.3162 145.948 27.4237 145.948 27.5044C145.948 27.7732 149.197 29.2788 151.088 29.8703C156.76 31.6178 163.498 30.865 168.558 27.8808C172.153 25.7569 175.748 21.5359 177.426 17.4494C178.331 15.2717 179.236 11.2927 179.236 9.38391C179.236 8.1472 179.316 7.98589 180.808 6.50722C181.686 5.6469 182.512 4.70593 182.672 4.43708C182.938 3.92626 182.911 3.92626 181.553 4.38331C179.29 5.18986 178.97 5.08232 180.089 3.87249C180.914 3.01217 181.899 1.45284 181.899 0.995799C181.899 0.915144 181.5 1.04957 181.047 1.29153C180.568 1.56038 179.503 1.96366 178.704 2.20562L177.266 2.66267L175.961 1.77546C175.242 1.29153 174.23 0.753834 173.697 0.592524C172.339 0.216135 170.262 0.269904 169.037 0.700064C165.708 1.90989 163.604 5.02855 163.844 8.44294Z" fill="url(#paint1_linear_85_3778)"/>
<g clip-path="url(#clip0_85_3778)">
<rect width="30.2337" height="30.2337" transform="translate(72.7642 0.766113)" fill="url(#paint2_linear_85_3778)"/>
<path fill-rule="evenodd" clip-rule="evenodd" d="M76.1252 31.0008H99.6403C101.496 31.0008 103 29.4968 103 27.6415V4.12639C103 2.2711 101.496 0.76709 99.6403 0.76709H76.1252C74.2699 0.76709 72.7659 2.2711 72.7659 4.12639V27.6415C72.7659 29.4968 74.2699 31.0008 76.1252 31.0008Z" fill="url(#paint3_linear_85_3778)"/>
<path fill-rule="evenodd" clip-rule="evenodd" d="M98.8015 26.8027H94.315V19.1612C94.315 17.0661 93.5189 15.8953 91.8607 15.8953C90.0567 15.8953 89.1142 17.1137 89.1142 19.1612V26.8027H84.7904V12.2458H89.1142V14.2066C89.1142 14.2066 90.4142 11.801 93.5033 11.801C96.591 11.801 98.8015 13.6865 98.8015 17.5862V26.8027ZM79.6322 10.3396C78.1595 10.3396 76.9661 9.13687 76.9661 7.65347C76.9661 6.17006 78.1595 4.96729 79.6322 4.96729C81.105 4.96729 82.2977 6.17006 82.2977 7.65347C82.2977 9.13687 81.105 10.3396 79.6322 10.3396ZM77.3996 26.8027H81.9082V12.2458H77.3996V26.8027Z" fill="#132327"/>
</g>
<defs>
<linearGradient id="paint0_linear_85_3778" x1="15.7575" y1="0.726356" x2="15.7575" y2="30.7981" gradientUnits="userSpaceOnUse">
<stop stop-color="#FAF51C"/>
<stop offset="1" stop-color="#F67408"/>
</linearGradient>
<linearGradient id="paint1_linear_85_3778" x1="164.405" y1="0.726356" x2="164.405" y2="30.7981" gradientUnits="userSpaceOnUse">
<stop stop-color="#FAF51C"/>
<stop offset="1" stop-color="#F67408"/>
</linearGradient>
<linearGradient id="paint2_linear_85_3778" x1="15.1406" y1="0.382705" x2="15.1406" y2="30.2337" gradientUnits="userSpaceOnUse">
<stop stop-color="#FAF51C"/>
<stop offset="1" stop-color="#F67408"/>
</linearGradient>
<linearGradient id="paint3_linear_85_3778" x1="87.9064" y1="1.14979" x2="87.9064" y2="31.0008" gradientUnits="userSpaceOnUse">
<stop stop-color="#FAF51C"/>
<stop offset="1" stop-color="#F67408"/>
</linearGradient>
<clipPath id="clip0_85_3778">
<rect width="30.2337" height="30.2337" fill="white" transform="translate(72.7642 0.766113)"/>
</clipPath>
</defs>
</svg>
