<svg width="27" height="16" viewBox="0 0 27 16" fill="none" xmlns="http://www.w3.org/2000/svg">
<path d="M13.543 15.821C13.2271 15.821 12.9215 15.7618 12.6262 15.6433C12.3293 15.5249 12.0821 15.3669 11.8847 15.1695L0.987404 4.27223C0.553093 3.83792 0.335938 3.28516 0.335938 2.61395C0.335938 1.94274 0.553093 1.38998 0.987404 0.955666C1.42172 0.521354 1.97448 0.304199 2.64569 0.304199C3.3169 0.304199 3.86966 0.521354 4.30397 0.955666L13.543 10.1947L22.782 0.955666C23.2163 0.521354 23.769 0.304199 24.4402 0.304199C25.1115 0.304199 25.6642 0.521354 26.0985 0.955666C26.5328 1.38998 26.75 1.94274 26.75 2.61395C26.75 3.28516 26.5328 3.83792 26.0985 4.27223L15.2012 15.1695C14.9644 15.4064 14.7077 15.5738 14.4313 15.6717C14.155 15.7712 13.8588 15.821 13.543 15.821Z" fill="#B6F6FF"/>
<path d="M13.543 15.821C13.2271 15.821 12.9215 15.7618 12.6262 15.6433C12.3293 15.5249 12.0821 15.3669 11.8847 15.1695L0.987404 4.27223C0.553093 3.83792 0.335938 3.28516 0.335938 2.61395C0.335938 1.94274 0.553093 1.38998 0.987404 0.955666C1.42172 0.521354 1.97448 0.304199 2.64569 0.304199C3.3169 0.304199 3.86966 0.521354 4.30397 0.955666L13.543 10.1947L22.782 0.955666C23.2163 0.521354 23.769 0.304199 24.4402 0.304199C25.1115 0.304199 25.6642 0.521354 26.0985 0.955666C26.5328 1.38998 26.75 1.94274 26.75 2.61395C26.75 3.28516 26.5328 3.83792 26.0985 4.27223L15.2012 15.1695C14.9644 15.4064 14.7077 15.5738 14.4313 15.6717C14.155 15.7712 13.8588 15.821 13.543 15.821Z" fill="url(#paint0_linear_85_3739)"/>
<defs>
<linearGradient id="paint0_linear_85_3739" x1="13.543" y1="0.304199" x2="13.543" y2="15.821" gradientUnits="userSpaceOnUse">
<stop stop-color="white"/>
<stop offset="1" stop-color="white" stop-opacity="0"/>
</linearGradient>
</defs>
</svg>
