<svg width="27" height="17" viewBox="0 0 27 17" fill="none" xmlns="http://www.w3.org/2000/svg">
<path d="M13.543 16.071C13.2271 16.071 12.9215 16.0118 12.6262 15.8933C12.3293 15.7749 12.0821 15.6169 11.8847 15.4195L0.987404 4.52223C0.553093 4.08792 0.335938 3.53516 0.335938 2.86395C0.335938 2.19274 0.553093 1.63998 0.987404 1.20567C1.42172 0.771354 1.97448 0.554199 2.64569 0.554199C3.3169 0.554199 3.86966 0.771354 4.30397 1.20567L13.543 10.4447L22.782 1.20567C23.2163 0.771354 23.769 0.554199 24.4402 0.554199C25.1115 0.554199 25.6642 0.771354 26.0985 1.20567C26.5328 1.63998 26.75 2.19274 26.75 2.86395C26.75 3.53516 26.5328 4.08792 26.0985 4.52223L15.2012 15.4195C14.9644 15.6564 14.7077 15.8238 14.4313 15.9217C14.155 16.0212 13.8588 16.071 13.543 16.071Z" fill="#B6F6FF"/>
<path d="M13.543 16.071C13.2271 16.071 12.9215 16.0118 12.6262 15.8933C12.3293 15.7749 12.0821 15.6169 11.8847 15.4195L0.987404 4.52223C0.553093 4.08792 0.335938 3.53516 0.335938 2.86395C0.335938 2.19274 0.553093 1.63998 0.987404 1.20567C1.42172 0.771354 1.97448 0.554199 2.64569 0.554199C3.3169 0.554199 3.86966 0.771354 4.30397 1.20567L13.543 10.4447L22.782 1.20567C23.2163 0.771354 23.769 0.554199 24.4402 0.554199C25.1115 0.554199 25.6642 0.771354 26.0985 1.20567C26.5328 1.63998 26.75 2.19274 26.75 2.86395C26.75 3.53516 26.5328 4.08792 26.0985 4.52223L15.2012 15.4195C14.9644 15.6564 14.7077 15.8238 14.4313 15.9217C14.155 16.0212 13.8588 16.071 13.543 16.071Z" fill="url(#paint0_linear_85_3742)"/>
<defs>
<linearGradient id="paint0_linear_85_3742" x1="13.543" y1="0.554199" x2="13.543" y2="16.071" gradientUnits="userSpaceOnUse">
<stop stop-color="white"/>
<stop offset="1" stop-color="white" stop-opacity="0"/>
</linearGradient>
</defs>
</svg>
