<svg width="27" height="16" viewBox="0 0 27 16" fill="none" xmlns="http://www.w3.org/2000/svg">
<path d="M13.543 15.571C13.2271 15.571 12.9215 15.5118 12.6262 15.3933C12.3293 15.2749 12.0821 15.1169 11.8847 14.9195L0.987404 4.02223C0.553093 3.58792 0.335938 3.03516 0.335938 2.36395C0.335938 1.69274 0.553093 1.13998 0.987404 0.705666C1.42172 0.271354 1.97448 0.0541992 2.64569 0.0541992C3.3169 0.0541992 3.86966 0.271354 4.30397 0.705666L13.543 9.94467L22.782 0.705666C23.2163 0.271354 23.769 0.0541992 24.4402 0.0541992C25.1115 0.0541992 25.6642 0.271354 26.0985 0.705666C26.5328 1.13998 26.75 1.69274 26.75 2.36395C26.75 3.03516 26.5328 3.58792 26.0985 4.02223L15.2012 14.9195C14.9644 15.1564 14.7077 15.3238 14.4313 15.4217C14.155 15.5212 13.8588 15.571 13.543 15.571Z" fill="#B6F6FF"/>
<path d="M13.543 15.571C13.2271 15.571 12.9215 15.5118 12.6262 15.3933C12.3293 15.2749 12.0821 15.1169 11.8847 14.9195L0.987404 4.02223C0.553093 3.58792 0.335938 3.03516 0.335938 2.36395C0.335938 1.69274 0.553093 1.13998 0.987404 0.705666C1.42172 0.271354 1.97448 0.0541992 2.64569 0.0541992C3.3169 0.0541992 3.86966 0.271354 4.30397 0.705666L13.543 9.94467L22.782 0.705666C23.2163 0.271354 23.769 0.0541992 24.4402 0.0541992C25.1115 0.0541992 25.6642 0.271354 26.0985 0.705666C26.5328 1.13998 26.75 1.69274 26.75 2.36395C26.75 3.03516 26.5328 3.58792 26.0985 4.02223L15.2012 14.9195C14.9644 15.1564 14.7077 15.3238 14.4313 15.4217C14.155 15.5212 13.8588 15.571 13.543 15.571Z" fill="url(#paint0_linear_85_3736)"/>
<defs>
<linearGradient id="paint0_linear_85_3736" x1="13.543" y1="0.0541992" x2="13.543" y2="15.571" gradientUnits="userSpaceOnUse">
<stop stop-color="white"/>
<stop offset="1" stop-color="white" stop-opacity="0"/>
</linearGradient>
</defs>
</svg>
