<svg width="27" height="17" viewBox="0 0 27 17" fill="none" xmlns="http://www.w3.org/2000/svg">
<path d="M13.543 16.321C13.2271 16.321 12.9215 16.2618 12.6262 16.1433C12.3293 16.0249 12.0821 15.8669 11.8847 15.6695L0.987404 4.77223C0.553093 4.33792 0.335938 3.78516 0.335938 3.11395C0.335938 2.44274 0.553093 1.88998 0.987404 1.45567C1.42172 1.02135 1.97448 0.804199 2.64569 0.804199C3.3169 0.804199 3.86966 1.02135 4.30397 1.45567L13.543 10.6947L22.782 1.45567C23.2163 1.02135 23.769 0.804199 24.4402 0.804199C25.1115 0.804199 25.6642 1.02135 26.0985 1.45567C26.5328 1.88998 26.75 2.44274 26.75 3.11395C26.75 3.78516 26.5328 4.33792 26.0985 4.77223L15.2012 15.6695C14.9644 15.9064 14.7077 16.0738 14.4313 16.1717C14.155 16.2712 13.8588 16.321 13.543 16.321Z" fill="#B6F6FF"/>
<path d="M13.543 16.321C13.2271 16.321 12.9215 16.2618 12.6262 16.1433C12.3293 16.0249 12.0821 15.8669 11.8847 15.6695L0.987404 4.77223C0.553093 4.33792 0.335938 3.78516 0.335938 3.11395C0.335938 2.44274 0.553093 1.88998 0.987404 1.45567C1.42172 1.02135 1.97448 0.804199 2.64569 0.804199C3.3169 0.804199 3.86966 1.02135 4.30397 1.45567L13.543 10.6947L22.782 1.45567C23.2163 1.02135 23.769 0.804199 24.4402 0.804199C25.1115 0.804199 25.6642 1.02135 26.0985 1.45567C26.5328 1.88998 26.75 2.44274 26.75 3.11395C26.75 3.78516 26.5328 4.33792 26.0985 4.77223L15.2012 15.6695C14.9644 15.9064 14.7077 16.0738 14.4313 16.1717C14.155 16.2712 13.8588 16.321 13.543 16.321Z" fill="url(#paint0_linear_85_3745)"/>
<defs>
<linearGradient id="paint0_linear_85_3745" x1="13.543" y1="0.804199" x2="13.543" y2="16.321" gradientUnits="userSpaceOnUse">
<stop stop-color="white"/>
<stop offset="1" stop-color="white" stop-opacity="0"/>
</linearGradient>
</defs>
</svg>
