<svg width="245" height="73" viewBox="0 0 245 73" fill="none" xmlns="http://www.w3.org/2000/svg">
<mask id="mask0_85_3853" style="mask-type:luminance" maskUnits="userSpaceOnUse" x="22" y="20" width="32" height="33">
<path d="M22.0159 20.9097H53.1229V52.0167H22.0159V20.9097Z" fill="white"/>
</mask>
<g mask="url(#mask0_85_3853)">
<path d="M37.5694 20.9097C37.3146 20.9097 37.0604 20.9159 36.8063 20.9288C36.5521 20.9412 36.2979 20.9598 36.0448 20.9846C35.7918 21.01 35.5387 21.041 35.2874 21.0782C35.0355 21.1154 34.7847 21.1588 34.535 21.2089C34.2853 21.2585 34.0373 21.3143 33.7899 21.3758C33.5431 21.4378 33.2979 21.506 33.0544 21.5798C32.8109 21.6536 32.5692 21.7331 32.3296 21.8193C32.0901 21.905 31.8523 21.9963 31.6173 22.0938C31.3822 22.1913 31.1495 22.2944 30.9195 22.4032C30.6896 22.512 30.4619 22.6264 30.2376 22.7464C30.0133 22.8665 29.7918 22.9916 29.5731 23.1229C29.355 23.2537 29.1403 23.3895 28.9283 23.5309C28.7164 23.6724 28.5085 23.8189 28.3045 23.9705C28.0999 24.1222 27.8992 24.2788 27.7025 24.4406C27.5058 24.6018 27.3131 24.768 27.1243 24.9388C26.9355 25.1101 26.7512 25.2854 26.5714 25.4652C26.3916 25.6455 26.2158 25.8298 26.045 26.0181C25.8742 26.2069 25.708 26.3996 25.5462 26.5963C25.385 26.793 25.2284 26.9937 25.0767 27.1982C24.9251 27.4028 24.7786 27.6108 24.6371 27.8221C24.4957 28.0341 24.3599 28.2488 24.2285 28.4675C24.0978 28.6856 23.9727 28.9071 23.8526 29.1314C23.7326 29.3557 23.6182 29.5834 23.5094 29.8133C23.4006 30.0433 23.2975 30.276 23.2 30.5111C23.1025 30.7466 23.0106 30.9839 22.9249 31.2234C22.8393 31.463 22.7598 31.7047 22.6854 31.9482C22.6116 32.1917 22.544 32.4374 22.482 32.6843C22.42 32.9311 22.3642 33.1791 22.3146 33.4288C22.265 33.6785 22.2216 33.9293 22.1844 34.1812C22.1472 34.4331 22.1156 34.6856 22.0908 34.9386C22.066 35.1923 22.0474 35.4459 22.0345 35.7001C22.0221 35.9542 22.0159 36.209 22.0159 36.4632C22.0159 36.7179 22.0221 36.9721 22.0345 37.2263C22.0474 37.4805 22.066 37.7346 22.0908 37.9877C22.1156 38.2413 22.1472 38.4938 22.1844 38.7457C22.2216 38.9971 22.265 39.2479 22.3146 39.4976C22.3642 39.7472 22.42 39.9958 22.482 40.2426C22.544 40.4895 22.6116 40.7346 22.6854 40.9781C22.7598 41.2216 22.8393 41.4634 22.9249 41.7029C23.0106 41.943 23.1025 42.1803 23.2 42.4153C23.2975 42.6503 23.4006 42.8831 23.5094 43.113C23.6182 43.3435 23.7326 43.5707 23.8526 43.795C23.9727 44.0198 24.0978 44.2408 24.2285 44.4594C24.3599 44.6776 24.4957 44.8928 24.6371 45.1042C24.7786 45.3161 24.9251 45.5241 25.0767 45.7287C25.2284 45.9327 25.385 46.1333 25.5462 46.3306C25.708 46.5273 25.8742 46.72 26.045 46.9083C26.2158 47.0971 26.3916 47.2814 26.5714 47.4611C26.7512 47.6415 26.9355 47.8168 27.1243 47.9875C27.3131 48.1583 27.5058 48.3246 27.7025 48.4863C27.8992 48.6475 28.0999 48.8042 28.3045 48.9558C28.5085 49.1074 28.7164 49.2539 28.9283 49.3954C29.1403 49.5369 29.355 49.6732 29.5731 49.804C29.7918 49.9348 30.0133 50.0604 30.2376 50.1805C30.4619 50.3 30.6896 50.4144 30.9195 50.5237C31.1495 50.6325 31.3822 50.7356 31.6173 50.8326C31.8523 50.9301 32.0901 51.0219 32.3296 51.1076C32.5692 51.1933 32.8109 51.2733 33.0544 51.3471C33.2979 51.421 33.5431 51.4886 33.7899 51.5506C34.0373 51.6126 34.2853 51.6684 34.535 51.718C34.7847 51.7676 35.0355 51.811 35.2874 51.8482C35.5387 51.8859 35.7918 51.9169 36.0448 51.9417C36.2979 51.9671 36.5521 51.9857 36.8063 51.9981C37.0604 52.0105 37.3146 52.0167 37.5694 52.0167C37.8241 52.0167 38.0783 52.0105 38.3325 51.9981C38.5867 51.9857 38.8403 51.9671 39.0939 51.9417C39.3469 51.9169 39.6 51.8859 39.8514 51.8482C40.1033 51.811 40.3541 51.7676 40.6038 51.718C40.8534 51.6684 41.1014 51.6126 41.3483 51.5506C41.5957 51.4886 41.8408 51.421 42.0843 51.3471C42.3278 51.2733 42.5696 51.1933 42.8091 51.1076C43.0486 51.0219 43.2865 50.9301 43.5215 50.8326C43.7565 50.7356 43.9893 50.6325 44.2192 50.5237C44.4492 50.4144 44.6769 50.3 44.9012 50.1805C45.1255 50.0604 45.347 49.9348 45.5656 49.804C45.7838 49.6732 45.9985 49.5369 46.2104 49.3954C46.4223 49.2539 46.6303 49.1074 46.8343 48.9558C47.0389 48.8042 47.2395 48.6475 47.4362 48.4863C47.6329 48.3246 47.8257 48.1583 48.0145 47.9875C48.2033 47.8168 48.3876 47.6415 48.5673 47.4611C48.7471 47.2814 48.923 47.0971 49.0937 46.9083C49.2645 46.72 49.4308 46.5273 49.5925 46.3306C49.7537 46.1333 49.9104 45.9327 50.062 45.7287C50.2136 45.5241 50.3601 45.3161 50.5016 45.1042C50.6431 44.8928 50.7789 44.6776 50.9102 44.4594C51.041 44.2408 51.1661 44.0198 51.2861 43.795C51.4062 43.5707 51.5206 43.3435 51.6293 43.113C51.7381 42.8831 51.8413 42.6503 51.9388 42.4153C52.0363 42.1803 52.1281 41.943 52.2138 41.7029C52.2995 41.4634 52.3789 41.2216 52.4533 40.9781C52.5272 40.7346 52.5948 40.4895 52.6568 40.2426C52.7188 39.9958 52.7746 39.7472 52.8242 39.4976C52.8738 39.2479 52.9172 38.9971 52.9544 38.7457C52.9916 38.4938 53.0231 38.2413 53.0479 37.9877C53.0727 37.7346 53.0913 37.4805 53.1043 37.2263C53.1167 36.9721 53.1229 36.7179 53.1229 36.4632C53.1223 36.209 53.1161 35.9542 53.1031 35.7006C53.0907 35.4464 53.0716 35.1923 53.0468 34.9392C53.0214 34.6862 52.9899 34.4337 52.9527 34.1817C52.9149 33.9304 52.8715 33.6796 52.8214 33.4299C52.7718 33.1802 52.716 32.9323 52.654 32.6854C52.592 32.4385 52.5238 32.1934 52.4499 31.9499C52.3755 31.7064 52.2961 31.4652 52.2099 31.2257C52.1242 30.9862 52.0323 30.7489 51.9348 30.5133C51.8373 30.2783 51.7342 30.0461 51.6254 29.8161C51.5166 29.5862 51.4022 29.3585 51.2822 29.1342C51.1621 28.9099 51.0364 28.689 50.9057 28.4703C50.7744 28.2522 50.6385 28.0374 50.4971 27.8255C50.3556 27.6142 50.2091 27.4062 50.0575 27.2016C49.9059 26.9976 49.7492 26.797 49.588 26.6003C49.4263 26.4036 49.26 26.2108 49.0892 26.0226C48.9185 25.8338 48.7432 25.6495 48.5628 25.4697C48.383 25.2899 48.1988 25.1141 48.0105 24.9433C47.8217 24.7725 47.629 24.6063 47.4323 24.4451C47.2356 24.2833 47.0349 24.1267 46.8309 23.9751C46.6263 23.8234 46.4184 23.6769 46.207 23.5355C45.9951 23.394 45.7804 23.2582 45.5623 23.1274C45.3441 22.9961 45.1227 22.871 44.8983 22.7509C44.674 22.6309 44.4469 22.5165 44.217 22.4071C43.9865 22.2984 43.7543 22.1952 43.5192 22.0977C43.2842 22.0002 43.0469 21.9084 42.8074 21.8227C42.5679 21.737 42.3261 21.657 42.0826 21.5832C41.8392 21.5088 41.594 21.4411 41.3471 21.3791C41.1003 21.3171 40.8523 21.2608 40.6026 21.2112C40.353 21.1616 40.1027 21.1176 39.8508 21.0799C39.5989 21.0427 39.3464 21.0111 39.0933 20.9863C38.8403 20.961 38.5867 20.9418 38.3325 20.9294C38.0783 20.9164 37.8241 20.9102 37.5694 20.9097ZM45.3165 37.1152L33.4664 43.3514C33.3576 43.3993 33.2444 43.4236 33.1254 43.4252C32.9868 43.4281 32.8589 43.3937 32.7405 43.3215C32.6295 43.2539 32.5421 43.1637 32.479 43.0499C32.4153 42.9366 32.3843 42.8149 32.3849 42.6847V30.2417C32.3843 30.112 32.4153 29.9903 32.479 29.8764C32.5421 29.7632 32.6295 29.6724 32.7405 29.6048C32.8532 29.5417 32.9738 29.5101 33.1035 29.5101C33.2325 29.5101 33.3537 29.5417 33.4664 29.6048L45.3165 35.841C45.3774 35.8708 45.4332 35.9086 45.4834 35.9542C45.5341 35.9999 45.5769 36.0512 45.613 36.1087C45.6491 36.1667 45.6761 36.2282 45.6947 36.293C45.7133 36.3583 45.7229 36.4248 45.7229 36.493C45.7229 36.5607 45.7133 36.6272 45.6947 36.6926C45.6761 36.7579 45.6491 36.8194 45.613 36.8768C45.5769 36.9343 45.5341 36.9862 45.4834 37.0318C45.4332 37.0769 45.3774 37.1147 45.3165 37.1446V37.1152Z" fill="white"/>
</g>
<path d="M89.763 29.356L86.0558 44.4631H80.8915L78.813 35.206L76.6915 44.4631H71.5273L67.863 29.356H72.4058L74.163 39.6846L76.5415 29.356H81.1487L83.463 39.5988L85.2201 29.356H89.763ZM101.102 41.9988H95.7452L94.9309 44.4631H90.5166L96.0238 29.356H100.867L106.352 44.4631H101.917L101.102 41.9988ZM100.052 38.7846L98.4238 33.8988L96.8166 38.7846H100.052ZM119.1 29.356V32.6988H115.071V44.4631H110.871V32.6988H106.886V29.356H119.1ZM120.139 36.8774C120.139 35.3917 120.447 34.0703 121.061 32.9131C121.689 31.7417 122.575 30.8346 123.718 30.1917C124.861 29.5346 126.175 29.206 127.661 29.206C129.547 29.206 131.132 29.7131 132.418 30.7274C133.704 31.7274 134.532 33.0917 134.904 34.8203H130.382C130.111 34.2488 129.732 33.8131 129.247 33.5131C128.775 33.2131 128.225 33.0631 127.597 33.0631C126.625 33.0631 125.847 33.4131 125.261 34.1131C124.689 34.7988 124.404 35.7203 124.404 36.8774C124.404 38.0488 124.689 38.9846 125.261 39.6846C125.847 40.3703 126.625 40.7131 127.597 40.7131C128.225 40.7131 128.775 40.5631 129.247 40.2631C129.732 39.9631 130.111 39.5274 130.382 38.956H134.904C134.532 40.6846 133.704 42.056 132.418 43.0703C131.132 44.0703 129.547 44.5703 127.661 44.5703C126.175 44.5703 124.861 44.2488 123.718 43.606C122.575 42.9488 121.689 42.0417 121.061 40.8846C120.447 39.7131 120.139 38.3774 120.139 36.8774ZM150.414 29.356V44.4631H146.214V38.3988H141.093V44.4631H136.893V29.356H141.093V35.0346H146.214V29.356H150.414ZM171.619 29.356L166.412 44.4631H161.033L155.805 29.356H160.305L163.733 40.2631L167.141 29.356H171.619ZM177.128 29.356V44.4631H172.928V29.356H177.128ZM185.498 29.356C187.084 29.356 188.47 29.6774 189.655 30.3203C190.855 30.9488 191.777 31.8346 192.42 32.9774C193.062 34.1203 193.384 35.4274 193.384 36.8988C193.384 38.356 193.055 39.656 192.398 40.7988C191.755 41.9417 190.834 42.8417 189.634 43.4988C188.448 44.1417 187.07 44.4631 185.498 44.4631H179.52V29.356H185.498ZM185.177 40.756C186.405 40.756 187.37 40.4203 188.07 39.7488C188.77 39.0774 189.12 38.1274 189.12 36.8988C189.12 35.656 188.77 34.6988 188.07 34.0274C187.37 33.3417 186.405 32.9988 185.177 32.9988H183.72V40.756H185.177ZM199.477 32.7203V35.1846H204.299V38.3774H199.477V41.0988H204.941V44.4631H195.277V29.356H204.941V32.7203H199.477ZM214.26 44.6131C212.845 44.6131 211.545 44.2846 210.36 43.6274C209.174 42.956 208.231 42.0346 207.531 40.8631C206.845 39.6774 206.502 38.3417 206.502 36.856C206.502 35.3703 206.845 34.0417 207.531 32.8703C208.231 31.6846 209.174 30.7631 210.36 30.106C211.545 29.4488 212.845 29.1203 214.26 29.1203C215.688 29.1203 216.988 29.4488 218.16 30.106C219.345 30.7631 220.281 31.6846 220.967 32.8703C221.652 34.0417 221.995 35.3703 221.995 36.856C221.995 38.3417 221.652 39.6774 220.967 40.8631C220.281 42.0346 219.345 42.956 218.16 43.6274C216.974 44.2846 215.674 44.6131 214.26 44.6131ZM214.26 40.7131C215.331 40.7131 216.174 40.3631 216.788 39.6631C217.417 38.9631 217.731 38.0274 217.731 36.856C217.731 35.656 217.417 34.7131 216.788 34.0274C216.174 33.3274 215.331 32.9774 214.26 32.9774C213.174 32.9774 212.324 33.3274 211.71 34.0274C211.095 34.7131 210.788 35.656 210.788 36.856C210.788 38.0417 211.095 38.9846 211.71 39.6846C212.324 40.3703 213.174 40.7131 214.26 40.7131Z" fill="white"/>
<rect x="3.08177" y="2.69017" width="238.836" height="67.5459" rx="33.7729" stroke="url(#paint0_linear_85_3853)" stroke-width="4.33157"/>
<defs>
<linearGradient id="paint0_linear_85_3853" x1="122.684" y1="5.65614" x2="122.684" y2="68.0702" gradientUnits="userSpaceOnUse">
<stop stop-color="#FAF51C"/>
<stop offset="1" stop-color="#F67408"/>
</linearGradient>
</defs>
</svg>
